<?xml version="1.0" encoding="utf-8" standalone="no"?>
<!DOCTYPE svg PUBLIC "-//W3C//DTD SVG 1.1//EN"
  "http://www.w3.org/Graphics/SVG/1.1/DTD/svg11.dtd">
<svg xmlns:xlink="http://www.w3.org/1999/xlink" width="648pt" height="576pt" viewBox="0 0 648 576" xmlns="http://www.w3.org/2000/svg" version="1.1">
 <metadata>
  <rdf:RDF xmlns:dc="http://purl.org/dc/elements/1.1/" xmlns:cc="http://creativecommons.org/ns#" xmlns:rdf="http://www.w3.org/1999/02/22-rdf-syntax-ns#">
   <cc:Work>
    <dc:type rdf:resource="http://purl.org/dc/dcmitype/StillImage"/>
    <dc:date>2022-09-04T12:11:23.977734</dc:date>
    <dc:format>image/svg+xml</dc:format>
    <dc:creator>
     <cc:Agent>
      <dc:title>Matplotlib v3.5.3, https://matplotlib.org/</dc:title>
     </cc:Agent>
    </dc:creator>
   </cc:Work>
  </rdf:RDF>
 </metadata>
 <defs>
  <style type="text/css">*{stroke-linejoin: round; stroke-linecap: butt}</style>
 </defs>
 <g id="figure_1">
  <g id="patch_1">
   <path d="M 0 576 
L 648 576 
L 648 0 
L 0 0 
z
" style="fill: #ffffff"/>
  </g>
  <g id="patch_2">
   <path d="M -20.88 288 
L 267.12 288 
L 267.12 0 
L -20.88 0 
z
" style="fill: #ffffff"/>
  </g>
  <g id="pane3d_1">
   <g id="patch_3">
    <path d="M 16.895404 229.502734 
L 55.48358 178.910342 
L 54.019491 51.902074 
L 14.368247 88.259858 
" style="fill: #f2f2f2; opacity: 0.5; stroke: #f2f2f2; stroke-linejoin: miter"/>
   </g>
  </g>
  <g id="pane3d_2">
   <g id="patch_4">
    <path d="M 55.48358 178.910342 
L 227.142348 186.196718 
L 229.227592 57.127489 
L 54.019491 51.902074 
" style="fill: #e6e6e6; opacity: 0.5; stroke: #e6e6e6; stroke-linejoin: miter"/>
   </g>
  </g>
  <g id="pane3d_3">
   <g id="patch_5">
    <path d="M 16.895404 229.502734 
L 208.546471 238.636747 
L 227.142348 186.196718 
L 55.48358 178.910342 
" style="fill: #ececec; opacity: 0.5; stroke: #ececec; stroke-linejoin: miter"/>
   </g>
  </g>
  <g id="axis3d_1">
   <g id="line2d_1">
    <path d="M 16.895404 229.502734 
L 208.546471 238.636747 
" style="fill: none; stroke: #000000; stroke-width: 0.8; stroke-linecap: square"/>
   </g>
   <g id="text_1">
    <!-- Raster files -->
    <g transform="translate(65.848413 277.557892)rotate(-357.271371)scale(0.14 -0.14)">
     <defs>
      <path id="DejaVuSans-52" d="M 2841 2188 
Q 3044 2119 3236 1894 
Q 3428 1669 3622 1275 
L 4263 0 
L 3584 0 
L 2988 1197 
Q 2756 1666 2539 1819 
Q 2322 1972 1947 1972 
L 1259 1972 
L 1259 0 
L 628 0 
L 628 4666 
L 2053 4666 
Q 2853 4666 3247 4331 
Q 3641 3997 3641 3322 
Q 3641 2881 3436 2590 
Q 3231 2300 2841 2188 
z
M 1259 4147 
L 1259 2491 
L 2053 2491 
Q 2509 2491 2742 2702 
Q 2975 2913 2975 3322 
Q 2975 3731 2742 3939 
Q 2509 4147 2053 4147 
L 1259 4147 
z
" transform="scale(0.015625)"/>
      <path id="DejaVuSans-61" d="M 2194 1759 
Q 1497 1759 1228 1600 
Q 959 1441 959 1056 
Q 959 750 1161 570 
Q 1363 391 1709 391 
Q 2188 391 2477 730 
Q 2766 1069 2766 1631 
L 2766 1759 
L 2194 1759 
z
M 3341 1997 
L 3341 0 
L 2766 0 
L 2766 531 
Q 2569 213 2275 61 
Q 1981 -91 1556 -91 
Q 1019 -91 701 211 
Q 384 513 384 1019 
Q 384 1609 779 1909 
Q 1175 2209 1959 2209 
L 2766 2209 
L 2766 2266 
Q 2766 2663 2505 2880 
Q 2244 3097 1772 3097 
Q 1472 3097 1187 3025 
Q 903 2953 641 2809 
L 641 3341 
Q 956 3463 1253 3523 
Q 1550 3584 1831 3584 
Q 2591 3584 2966 3190 
Q 3341 2797 3341 1997 
z
" transform="scale(0.015625)"/>
      <path id="DejaVuSans-73" d="M 2834 3397 
L 2834 2853 
Q 2591 2978 2328 3040 
Q 2066 3103 1784 3103 
Q 1356 3103 1142 2972 
Q 928 2841 928 2578 
Q 928 2378 1081 2264 
Q 1234 2150 1697 2047 
L 1894 2003 
Q 2506 1872 2764 1633 
Q 3022 1394 3022 966 
Q 3022 478 2636 193 
Q 2250 -91 1575 -91 
Q 1294 -91 989 -36 
Q 684 19 347 128 
L 347 722 
Q 666 556 975 473 
Q 1284 391 1588 391 
Q 1994 391 2212 530 
Q 2431 669 2431 922 
Q 2431 1156 2273 1281 
Q 2116 1406 1581 1522 
L 1381 1569 
Q 847 1681 609 1914 
Q 372 2147 372 2553 
Q 372 3047 722 3315 
Q 1072 3584 1716 3584 
Q 2034 3584 2315 3537 
Q 2597 3491 2834 3397 
z
" transform="scale(0.015625)"/>
      <path id="DejaVuSans-74" d="M 1172 4494 
L 1172 3500 
L 2356 3500 
L 2356 3053 
L 1172 3053 
L 1172 1153 
Q 1172 725 1289 603 
Q 1406 481 1766 481 
L 2356 481 
L 2356 0 
L 1766 0 
Q 1100 0 847 248 
Q 594 497 594 1153 
L 594 3053 
L 172 3053 
L 172 3500 
L 594 3500 
L 594 4494 
L 1172 4494 
z
" transform="scale(0.015625)"/>
      <path id="DejaVuSans-65" d="M 3597 1894 
L 3597 1613 
L 953 1613 
Q 991 1019 1311 708 
Q 1631 397 2203 397 
Q 2534 397 2845 478 
Q 3156 559 3463 722 
L 3463 178 
Q 3153 47 2828 -22 
Q 2503 -91 2169 -91 
Q 1331 -91 842 396 
Q 353 884 353 1716 
Q 353 2575 817 3079 
Q 1281 3584 2069 3584 
Q 2775 3584 3186 3129 
Q 3597 2675 3597 1894 
z
M 3022 2063 
Q 3016 2534 2758 2815 
Q 2500 3097 2075 3097 
Q 1594 3097 1305 2825 
Q 1016 2553 972 2059 
L 3022 2063 
z
" transform="scale(0.015625)"/>
      <path id="DejaVuSans-72" d="M 2631 2963 
Q 2534 3019 2420 3045 
Q 2306 3072 2169 3072 
Q 1681 3072 1420 2755 
Q 1159 2438 1159 1844 
L 1159 0 
L 581 0 
L 581 3500 
L 1159 3500 
L 1159 2956 
Q 1341 3275 1631 3429 
Q 1922 3584 2338 3584 
Q 2397 3584 2469 3576 
Q 2541 3569 2628 3553 
L 2631 2963 
z
" transform="scale(0.015625)"/>
      <path id="DejaVuSans-20" transform="scale(0.015625)"/>
      <path id="DejaVuSans-66" d="M 2375 4863 
L 2375 4384 
L 1825 4384 
Q 1516 4384 1395 4259 
Q 1275 4134 1275 3809 
L 1275 3500 
L 2222 3500 
L 2222 3053 
L 1275 3053 
L 1275 0 
L 697 0 
L 697 3053 
L 147 3053 
L 147 3500 
L 697 3500 
L 697 3744 
Q 697 4328 969 4595 
Q 1241 4863 1831 4863 
L 2375 4863 
z
" transform="scale(0.015625)"/>
      <path id="DejaVuSans-69" d="M 603 3500 
L 1178 3500 
L 1178 0 
L 603 0 
L 603 3500 
z
M 603 4863 
L 1178 4863 
L 1178 4134 
L 603 4134 
L 603 4863 
z
" transform="scale(0.015625)"/>
      <path id="DejaVuSans-6c" d="M 603 4863 
L 1178 4863 
L 1178 0 
L 603 0 
L 603 4863 
z
" transform="scale(0.015625)"/>
     </defs>
     <use xlink:href="#DejaVuSans-52"/>
     <use xlink:href="#DejaVuSans-61" x="67.232422"/>
     <use xlink:href="#DejaVuSans-73" x="128.511719"/>
     <use xlink:href="#DejaVuSans-74" x="180.611328"/>
     <use xlink:href="#DejaVuSans-65" x="219.820312"/>
     <use xlink:href="#DejaVuSans-72" x="281.34375"/>
     <use xlink:href="#DejaVuSans-20" x="322.457031"/>
     <use xlink:href="#DejaVuSans-66" x="354.244141"/>
     <use xlink:href="#DejaVuSans-69" x="389.449219"/>
     <use xlink:href="#DejaVuSans-6c" x="417.232422"/>
     <use xlink:href="#DejaVuSans-65" x="445.015625"/>
     <use xlink:href="#DejaVuSans-73" x="506.539062"/>
    </g>
   </g>
   <g id="Line3DCollection_1">
    <path d="M 45.355083 230.859111 
L 81.018428 179.994216 
L 80.074564 52.679142 
" style="fill: none; stroke: #b0b0b0; stroke-width: 0.8"/>
    <path d="M 111.813176 234.026477 
L 140.586766 182.522705 
L 140.867025 54.492219 
" style="fill: none; stroke: #b0b0b0; stroke-width: 0.8"/>
    <path d="M 179.156219 237.236019 
L 200.863061 185.081245 
L 202.396999 56.327292 
" style="fill: none; stroke: #b0b0b0; stroke-width: 0.8"/>
   </g>
   <g id="xtick_1">
    <g id="line2d_2">
     <path d="M 45.673991 230.404268 
L 44.715445 231.771397 
" style="fill: none; stroke: #000000; stroke-width: 0.8; stroke-linecap: square"/>
    </g>
    <g id="text_2">
     <!-- 1 -->
     <g transform="translate(37.961361 256.584824)scale(0.14 -0.14)">
      <defs>
       <path id="DejaVuSans-31" d="M 794 531 
L 1825 531 
L 1825 4091 
L 703 3866 
L 703 4441 
L 1819 4666 
L 2450 4666 
L 2450 531 
L 3481 531 
L 3481 0 
L 794 0 
L 794 531 
z
" transform="scale(0.015625)"/>
      </defs>
      <use xlink:href="#DejaVuSans-31"/>
     </g>
    </g>
   </g>
   <g id="xtick_2">
    <g id="line2d_3">
     <path d="M 112.070654 233.5656 
L 111.29674 234.950882 
" style="fill: none; stroke: #000000; stroke-width: 0.8; stroke-linecap: square"/>
    </g>
    <g id="text_3">
     <!-- 2 -->
     <g transform="translate(104.897657 259.876453)scale(0.14 -0.14)">
      <defs>
       <path id="DejaVuSans-32" d="M 1228 531 
L 3431 531 
L 3431 0 
L 469 0 
L 469 531 
Q 828 903 1448 1529 
Q 2069 2156 2228 2338 
Q 2531 2678 2651 2914 
Q 2772 3150 2772 3378 
Q 2772 3750 2511 3984 
Q 2250 4219 1831 4219 
Q 1534 4219 1204 4116 
Q 875 4013 500 3803 
L 500 4441 
Q 881 4594 1212 4672 
Q 1544 4750 1819 4750 
Q 2544 4750 2975 4387 
Q 3406 4025 3406 3419 
Q 3406 3131 3298 2873 
Q 3191 2616 2906 2266 
Q 2828 2175 2409 1742 
Q 1991 1309 1228 531 
z
" transform="scale(0.015625)"/>
      </defs>
      <use xlink:href="#DejaVuSans-32"/>
     </g>
    </g>
   </g>
   <g id="xtick_3">
    <g id="line2d_4">
     <path d="M 179.350598 236.768988 
L 178.766337 238.172786 
" style="fill: none; stroke: #000000; stroke-width: 0.8; stroke-linecap: square"/>
    </g>
    <g id="text_4">
     <!-- 3 -->
     <g transform="translate(172.731992 263.212242)scale(0.14 -0.14)">
      <defs>
       <path id="DejaVuSans-33" d="M 2597 2516 
Q 3050 2419 3304 2112 
Q 3559 1806 3559 1356 
Q 3559 666 3084 287 
Q 2609 -91 1734 -91 
Q 1441 -91 1130 -33 
Q 819 25 488 141 
L 488 750 
Q 750 597 1062 519 
Q 1375 441 1716 441 
Q 2309 441 2620 675 
Q 2931 909 2931 1356 
Q 2931 1769 2642 2001 
Q 2353 2234 1838 2234 
L 1294 2234 
L 1294 2753 
L 1863 2753 
Q 2328 2753 2575 2939 
Q 2822 3125 2822 3475 
Q 2822 3834 2567 4026 
Q 2313 4219 1838 4219 
Q 1578 4219 1281 4162 
Q 984 4106 628 3988 
L 628 4550 
Q 988 4650 1302 4700 
Q 1616 4750 1894 4750 
Q 2613 4750 3031 4423 
Q 3450 4097 3450 3541 
Q 3450 3153 3228 2886 
Q 3006 2619 2597 2516 
z
" transform="scale(0.015625)"/>
      </defs>
      <use xlink:href="#DejaVuSans-33"/>
     </g>
    </g>
   </g>
  </g>
  <g id="axis3d_2">
   <g id="line2d_5">
    <path d="M 227.142348 186.196718 
L 208.546471 238.636747 
" style="fill: none; stroke: #000000; stroke-width: 0.8; stroke-linecap: square"/>
   </g>
   <g id="text_5">
    <!-- Vector files -->
    <g transform="translate(240.631093 273.311588)rotate(-70.474869)scale(0.14 -0.14)">
     <defs>
      <path id="DejaVuSans-56" d="M 1831 0 
L 50 4666 
L 709 4666 
L 2188 738 
L 3669 4666 
L 4325 4666 
L 2547 0 
L 1831 0 
z
" transform="scale(0.015625)"/>
      <path id="DejaVuSans-63" d="M 3122 3366 
L 3122 2828 
Q 2878 2963 2633 3030 
Q 2388 3097 2138 3097 
Q 1578 3097 1268 2742 
Q 959 2388 959 1747 
Q 959 1106 1268 751 
Q 1578 397 2138 397 
Q 2388 397 2633 464 
Q 2878 531 3122 666 
L 3122 134 
Q 2881 22 2623 -34 
Q 2366 -91 2075 -91 
Q 1284 -91 818 406 
Q 353 903 353 1747 
Q 353 2603 823 3093 
Q 1294 3584 2113 3584 
Q 2378 3584 2631 3529 
Q 2884 3475 3122 3366 
z
" transform="scale(0.015625)"/>
      <path id="DejaVuSans-6f" d="M 1959 3097 
Q 1497 3097 1228 2736 
Q 959 2375 959 1747 
Q 959 1119 1226 758 
Q 1494 397 1959 397 
Q 2419 397 2687 759 
Q 2956 1122 2956 1747 
Q 2956 2369 2687 2733 
Q 2419 3097 1959 3097 
z
M 1959 3584 
Q 2709 3584 3137 3096 
Q 3566 2609 3566 1747 
Q 3566 888 3137 398 
Q 2709 -91 1959 -91 
Q 1206 -91 779 398 
Q 353 888 353 1747 
Q 353 2609 779 3096 
Q 1206 3584 1959 3584 
z
" transform="scale(0.015625)"/>
     </defs>
     <use xlink:href="#DejaVuSans-56"/>
     <use xlink:href="#DejaVuSans-65" x="60.658203"/>
     <use xlink:href="#DejaVuSans-63" x="122.181641"/>
     <use xlink:href="#DejaVuSans-74" x="177.162109"/>
     <use xlink:href="#DejaVuSans-6f" x="216.371094"/>
     <use xlink:href="#DejaVuSans-72" x="277.552734"/>
     <use xlink:href="#DejaVuSans-20" x="318.666016"/>
     <use xlink:href="#DejaVuSans-66" x="350.453125"/>
     <use xlink:href="#DejaVuSans-69" x="385.658203"/>
     <use xlink:href="#DejaVuSans-6c" x="413.441406"/>
     <use xlink:href="#DejaVuSans-65" x="441.224609"/>
     <use xlink:href="#DejaVuSans-73" x="502.748047"/>
    </g>
   </g>
   <g id="Line3DCollection_2">
    <path d="M 20.956793 82.218561 
L 23.294335 221.11319 
L 211.635366 229.926121 
" style="fill: none; stroke: #b0b0b0; stroke-width: 0.8"/>
    <path d="M 35.326814 69.042124 
L 37.26871 202.791592 
L 218.373873 210.923657 
" style="fill: none; stroke: #b0b0b0; stroke-width: 0.8"/>
    <path d="M 48.594161 56.876772 
L 50.192628 185.847232 
L 224.597057 193.374392 
" style="fill: none; stroke: #b0b0b0; stroke-width: 0.8"/>
   </g>
   <g id="xtick_4">
    <g id="line2d_6">
     <path d="M 210.100564 229.854304 
L 214.706353 230.06982 
" style="fill: none; stroke: #000000; stroke-width: 0.8; stroke-linecap: square"/>
    </g>
    <g id="text_6">
     <!-- 1 -->
     <g transform="translate(221.742561 251.843447)scale(0.14 -0.14)">
      <use xlink:href="#DejaVuSans-31"/>
     </g>
    </g>
   </g>
   <g id="xtick_5">
    <g id="line2d_7">
     <path d="M 216.89911 210.857436 
L 221.324676 211.056155 
" style="fill: none; stroke: #000000; stroke-width: 0.8; stroke-linecap: square"/>
    </g>
    <g id="text_7">
     <!-- 2 -->
     <g transform="translate(227.900499 232.397793)scale(0.14 -0.14)">
      <use xlink:href="#DejaVuSans-32"/>
     </g>
    </g>
   </g>
   <g id="xtick_6">
    <g id="line2d_8">
     <path d="M 223.177814 193.313139 
L 227.436726 193.49695 
" style="fill: none; stroke: #000000; stroke-width: 0.8; stroke-linecap: square"/>
    </g>
    <g id="text_8">
     <!-- 3 -->
     <g transform="translate(233.587636 214.438845)scale(0.14 -0.14)">
      <use xlink:href="#DejaVuSans-33"/>
     </g>
    </g>
   </g>
  </g>
  <g id="axis3d_3">
   <g id="line2d_9">
    <path d="M 227.142348 186.196718 
L 229.227592 57.127489 
" style="fill: none; stroke: #000000; stroke-width: 0.8; stroke-linecap: square"/>
   </g>
   <g id="text_9">
    <!-- Arithmetic mean -->
    <g transform="translate(274.733369 171.737868)rotate(-89.074409)scale(0.14 -0.14)">
     <defs>
      <path id="DejaVuSans-41" d="M 2188 4044 
L 1331 1722 
L 3047 1722 
L 2188 4044 
z
M 1831 4666 
L 2547 4666 
L 4325 0 
L 3669 0 
L 3244 1197 
L 1141 1197 
L 716 0 
L 50 0 
L 1831 4666 
z
" transform="scale(0.015625)"/>
      <path id="DejaVuSans-68" d="M 3513 2113 
L 3513 0 
L 2938 0 
L 2938 2094 
Q 2938 2591 2744 2837 
Q 2550 3084 2163 3084 
Q 1697 3084 1428 2787 
Q 1159 2491 1159 1978 
L 1159 0 
L 581 0 
L 581 4863 
L 1159 4863 
L 1159 2956 
Q 1366 3272 1645 3428 
Q 1925 3584 2291 3584 
Q 2894 3584 3203 3211 
Q 3513 2838 3513 2113 
z
" transform="scale(0.015625)"/>
      <path id="DejaVuSans-6d" d="M 3328 2828 
Q 3544 3216 3844 3400 
Q 4144 3584 4550 3584 
Q 5097 3584 5394 3201 
Q 5691 2819 5691 2113 
L 5691 0 
L 5113 0 
L 5113 2094 
Q 5113 2597 4934 2840 
Q 4756 3084 4391 3084 
Q 3944 3084 3684 2787 
Q 3425 2491 3425 1978 
L 3425 0 
L 2847 0 
L 2847 2094 
Q 2847 2600 2669 2842 
Q 2491 3084 2119 3084 
Q 1678 3084 1418 2786 
Q 1159 2488 1159 1978 
L 1159 0 
L 581 0 
L 581 3500 
L 1159 3500 
L 1159 2956 
Q 1356 3278 1631 3431 
Q 1906 3584 2284 3584 
Q 2666 3584 2933 3390 
Q 3200 3197 3328 2828 
z
" transform="scale(0.015625)"/>
      <path id="DejaVuSans-6e" d="M 3513 2113 
L 3513 0 
L 2938 0 
L 2938 2094 
Q 2938 2591 2744 2837 
Q 2550 3084 2163 3084 
Q 1697 3084 1428 2787 
Q 1159 2491 1159 1978 
L 1159 0 
L 581 0 
L 581 3500 
L 1159 3500 
L 1159 2956 
Q 1366 3272 1645 3428 
Q 1925 3584 2291 3584 
Q 2894 3584 3203 3211 
Q 3513 2838 3513 2113 
z
" transform="scale(0.015625)"/>
     </defs>
     <use xlink:href="#DejaVuSans-41"/>
     <use xlink:href="#DejaVuSans-72" x="68.408203"/>
     <use xlink:href="#DejaVuSans-69" x="109.521484"/>
     <use xlink:href="#DejaVuSans-74" x="137.304688"/>
     <use xlink:href="#DejaVuSans-68" x="176.513672"/>
     <use xlink:href="#DejaVuSans-6d" x="239.892578"/>
     <use xlink:href="#DejaVuSans-65" x="337.304688"/>
     <use xlink:href="#DejaVuSans-74" x="398.828125"/>
     <use xlink:href="#DejaVuSans-69" x="438.037109"/>
     <use xlink:href="#DejaVuSans-63" x="465.820312"/>
     <use xlink:href="#DejaVuSans-20" x="520.800781"/>
     <use xlink:href="#DejaVuSans-6d" x="552.587891"/>
     <use xlink:href="#DejaVuSans-65" x="650"/>
     <use xlink:href="#DejaVuSans-61" x="711.523438"/>
     <use xlink:href="#DejaVuSans-6e" x="772.802734"/>
    </g>
    <!-- of duration [s] -->
    <g transform="translate(290.549926 163.222569)rotate(-89.074409)scale(0.14 -0.14)">
     <defs>
      <path id="DejaVuSans-64" d="M 2906 2969 
L 2906 4863 
L 3481 4863 
L 3481 0 
L 2906 0 
L 2906 525 
Q 2725 213 2448 61 
Q 2172 -91 1784 -91 
Q 1150 -91 751 415 
Q 353 922 353 1747 
Q 353 2572 751 3078 
Q 1150 3584 1784 3584 
Q 2172 3584 2448 3432 
Q 2725 3281 2906 2969 
z
M 947 1747 
Q 947 1113 1208 752 
Q 1469 391 1925 391 
Q 2381 391 2643 752 
Q 2906 1113 2906 1747 
Q 2906 2381 2643 2742 
Q 2381 3103 1925 3103 
Q 1469 3103 1208 2742 
Q 947 2381 947 1747 
z
" transform="scale(0.015625)"/>
      <path id="DejaVuSans-75" d="M 544 1381 
L 544 3500 
L 1119 3500 
L 1119 1403 
Q 1119 906 1312 657 
Q 1506 409 1894 409 
Q 2359 409 2629 706 
Q 2900 1003 2900 1516 
L 2900 3500 
L 3475 3500 
L 3475 0 
L 2900 0 
L 2900 538 
Q 2691 219 2414 64 
Q 2138 -91 1772 -91 
Q 1169 -91 856 284 
Q 544 659 544 1381 
z
M 1991 3584 
L 1991 3584 
z
" transform="scale(0.015625)"/>
      <path id="DejaVuSans-5b" d="M 550 4863 
L 1875 4863 
L 1875 4416 
L 1125 4416 
L 1125 -397 
L 1875 -397 
L 1875 -844 
L 550 -844 
L 550 4863 
z
" transform="scale(0.015625)"/>
      <path id="DejaVuSans-5d" d="M 1947 4863 
L 1947 -844 
L 622 -844 
L 622 -397 
L 1369 -397 
L 1369 4416 
L 622 4416 
L 622 4863 
L 1947 4863 
z
" transform="scale(0.015625)"/>
     </defs>
     <use xlink:href="#DejaVuSans-6f"/>
     <use xlink:href="#DejaVuSans-66" x="61.181641"/>
     <use xlink:href="#DejaVuSans-20" x="96.386719"/>
     <use xlink:href="#DejaVuSans-64" x="128.173828"/>
     <use xlink:href="#DejaVuSans-75" x="191.650391"/>
     <use xlink:href="#DejaVuSans-72" x="255.029297"/>
     <use xlink:href="#DejaVuSans-61" x="296.142578"/>
     <use xlink:href="#DejaVuSans-74" x="357.421875"/>
     <use xlink:href="#DejaVuSans-69" x="396.630859"/>
     <use xlink:href="#DejaVuSans-6f" x="424.414062"/>
     <use xlink:href="#DejaVuSans-6e" x="485.595703"/>
     <use xlink:href="#DejaVuSans-20" x="548.974609"/>
     <use xlink:href="#DejaVuSans-5b" x="580.761719"/>
     <use xlink:href="#DejaVuSans-73" x="619.775391"/>
     <use xlink:href="#DejaVuSans-5d" x="671.875"/>
    </g>
   </g>
   <g id="Line3DCollection_3">
    <path d="M 227.570002 159.726472 
L 55.183233 152.855534 
L 16.377976 200.583692 
" style="fill: none; stroke: #b0b0b0; stroke-width: 0.8"/>
    <path d="M 228.180366 121.94709 
L 54.754641 115.67555 
L 15.638719 159.266574 
" style="fill: none; stroke: #b0b0b0; stroke-width: 0.8"/>
    <path d="M 228.798185 83.706284 
L 54.320902 78.049206 
L 14.889516 117.393579 
" style="fill: none; stroke: #b0b0b0; stroke-width: 0.8"/>
   </g>
   <g id="xtick_7">
    <g id="line2d_10">
     <path d="M 226.167464 159.67057 
L 230.376233 159.838322 
" style="fill: none; stroke: #000000; stroke-width: 0.8; stroke-linecap: square"/>
    </g>
    <g id="text_10">
     <!-- 150 -->
     <g transform="translate(228.823492 167.536916)scale(0.14 -0.14)">
      <defs>
       <path id="DejaVuSans-35" d="M 691 4666 
L 3169 4666 
L 3169 4134 
L 1269 4134 
L 1269 2991 
Q 1406 3038 1543 3061 
Q 1681 3084 1819 3084 
Q 2600 3084 3056 2656 
Q 3513 2228 3513 1497 
Q 3513 744 3044 326 
Q 2575 -91 1722 -91 
Q 1428 -91 1123 -41 
Q 819 9 494 109 
L 494 744 
Q 775 591 1075 516 
Q 1375 441 1709 441 
Q 2250 441 2565 725 
Q 2881 1009 2881 1497 
Q 2881 1984 2565 2268 
Q 2250 2553 1709 2553 
Q 1456 2553 1204 2497 
Q 953 2441 691 2322 
L 691 4666 
z
" transform="scale(0.015625)"/>
       <path id="DejaVuSans-30" d="M 2034 4250 
Q 1547 4250 1301 3770 
Q 1056 3291 1056 2328 
Q 1056 1369 1301 889 
Q 1547 409 2034 409 
Q 2525 409 2770 889 
Q 3016 1369 3016 2328 
Q 3016 3291 2770 3770 
Q 2525 4250 2034 4250 
z
M 2034 4750 
Q 2819 4750 3233 4129 
Q 3647 3509 3647 2328 
Q 3647 1150 3233 529 
Q 2819 -91 2034 -91 
Q 1250 -91 836 529 
Q 422 1150 422 2328 
Q 422 3509 836 4129 
Q 1250 4750 2034 4750 
z
" transform="scale(0.015625)"/>
      </defs>
      <use xlink:href="#DejaVuSans-31"/>
      <use xlink:href="#DejaVuSans-35" x="63.623047"/>
      <use xlink:href="#DejaVuSans-30" x="127.246094"/>
     </g>
    </g>
   </g>
   <g id="xtick_8">
    <g id="line2d_11">
     <path d="M 226.769232 121.89606 
L 231.003803 122.049193 
" style="fill: none; stroke: #000000; stroke-width: 0.8; stroke-linecap: square"/>
    </g>
    <g id="text_11">
     <!-- 200 -->
     <g transform="translate(229.517687 130.004029)scale(0.14 -0.14)">
      <use xlink:href="#DejaVuSans-32"/>
      <use xlink:href="#DejaVuSans-30" x="63.623047"/>
      <use xlink:href="#DejaVuSans-30" x="127.246094"/>
     </g>
    </g>
   </g>
   <g id="xtick_9">
    <g id="line2d_12">
     <path d="M 227.378348 83.660249 
L 231.639041 83.798393 
" style="fill: none; stroke: #000000; stroke-width: 0.8; stroke-linecap: square"/>
    </g>
    <g id="text_12">
     <!-- 250 -->
     <g transform="translate(230.220302 92.015946)scale(0.14 -0.14)">
      <use xlink:href="#DejaVuSans-32"/>
      <use xlink:href="#DejaVuSans-35" x="63.623047"/>
      <use xlink:href="#DejaVuSans-30" x="127.246094"/>
     </g>
    </g>
   </g>
  </g>
  <g id="axes_1">
   <g id="Poly3DCollection_1">
    <path d="M 64.070378 179.762449 
L 63.753918 148.568931 
L 93.720131 149.749538 
L 93.887172 181.029522 
z
" clip-path="url(#p984d40c065)" style="fill: #003615"/>
    <path d="M 123.881117 182.304124 
L 123.869067 158.434256 
L 154.158191 159.650008 
L 154.053796 183.586321 
z
" clip-path="url(#p984d40c065)" style="fill: #003615"/>
    <path d="M 58.046496 187.890358 
L 64.070378 179.762449 
L 93.887172 181.029522 
L 88.41332 189.20611 
z
" clip-path="url(#p984d40c065)" style="fill: #00451b"/>
    <path d="M 58.046496 187.890358 
L 57.693127 156.142791 
L 63.753918 148.568931 
L 64.070378 179.762449 
z
" clip-path="url(#p984d40c065)" style="fill: #00732d"/>
    <path d="M 88.41332 189.20611 
L 93.887172 181.029522 
L 93.720131 149.749538 
L 88.214947 157.368989 
z
" clip-path="url(#p984d40c065)" style="fill: #003615"/>
    <path d="M 184.406812 184.876181 
L 184.608141 163.131241 
L 215.251153 164.367993 
L 214.941786 186.173774 
z
" clip-path="url(#p984d40c065)" style="fill: #003615"/>
    <path d="M 57.693127 156.142791 
L 88.214947 157.368989 
L 93.720131 149.749538 
L 63.753918 148.568931 
z
" clip-path="url(#p984d40c065)" style="fill: #006427"/>
    <path d="M 118.964012 190.52983 
L 123.881117 182.304124 
L 154.053796 183.586321 
L 149.700246 191.861588 
z
" clip-path="url(#p984d40c065)" style="fill: #00451b"/>
    <path d="M 118.964012 190.52983 
L 118.932441 166.23418 
L 123.869067 158.434256 
L 123.881117 182.304124 
z
" clip-path="url(#p984d40c065)" style="fill: #00732d"/>
    <path d="M 149.700246 191.861588 
L 154.053796 183.586321 
L 154.158191 159.650008 
L 149.78952 167.497112 
z
" clip-path="url(#p984d40c065)" style="fill: #003615"/>
    <path d="M 118.932441 166.23418 
L 149.78952 167.497112 
L 154.158191 159.650008 
L 123.869067 158.434256 
z
" clip-path="url(#p984d40c065)" style="fill: #006427"/>
    <path d="M 58.046496 187.890358 
L 88.41332 189.20611 
L 88.214947 157.368989 
L 57.693127 156.142791 
z
" clip-path="url(#p984d40c065)" style="fill: #00732d"/>
    <path d="M 180.623717 193.201459 
L 184.406812 184.876181 
L 214.941786 186.173774 
L 211.736143 194.549517 
z
" clip-path="url(#p984d40c065)" style="fill: #00451b"/>
    <path d="M 180.623717 193.201459 
L 180.815406 171.066616 
L 184.608141 163.131241 
L 184.406812 184.876181 
z
" clip-path="url(#p984d40c065)" style="fill: #00732d"/>
    <path d="M 211.736143 194.549517 
L 214.941786 186.173774 
L 215.251153 164.367993 
L 212.040002 172.35164 
z
" clip-path="url(#p984d40c065)" style="fill: #003615"/>
    <path d="M 180.815406 171.066616 
L 212.040002 172.35164 
L 215.251153 164.367993 
L 184.608141 163.131241 
z
" clip-path="url(#p984d40c065)" style="fill: #006427"/>
    <path d="M 118.964012 190.52983 
L 149.700246 191.861588 
L 149.78952 167.497112 
L 118.932441 166.23418 
z
" clip-path="url(#p984d40c065)" style="fill: #00732d"/>
    <path d="M 180.623717 193.201459 
L 211.736143 194.549517 
L 212.040002 172.35164 
L 180.815406 171.066616 
z
" clip-path="url(#p984d40c065)" style="fill: #00732d"/>
    <path d="M 51.789279 196.333101 
L 51.198335 147.723825 
L 82.377807 148.951144 
L 82.726787 197.700392 
z
" clip-path="url(#p984d40c065)" style="fill: #003615"/>
    <path d="M 45.284904 205.10933 
L 51.789279 196.333101 
L 82.726787 197.700392 
L 76.814932 206.531249 
z
" clip-path="url(#p984d40c065)" style="fill: #00451b"/>
    <path d="M 45.284904 205.10933 
L 44.63008 155.602651 
L 51.198335 147.723825 
L 51.789279 196.333101 
z
" clip-path="url(#p984d40c065)" style="fill: #00732d"/>
    <path d="M 113.855268 199.076123 
L 113.643918 99.722204 
L 145.469211 100.816206 
L 145.176495 200.460373 
z
" clip-path="url(#p984d40c065)" style="fill: #003615"/>
    <path d="M 76.814932 206.531249 
L 82.726787 197.700392 
L 82.377807 148.951144 
L 76.411465 156.879403 
z
" clip-path="url(#p984d40c065)" style="fill: #003615"/>
    <path d="M 176.692265 201.853221 
L 177.049532 157.396124 
L 208.99155 158.668265 
L 208.404396 203.254747 
z
" clip-path="url(#p984d40c065)" style="fill: #003615"/>
    <path d="M 108.543459 207.962119 
L 113.855268 199.076123 
L 145.176495 200.460373 
L 140.472364 209.402026 
z
" clip-path="url(#p984d40c065)" style="fill: #00451b"/>
    <path d="M 44.63008 155.602651 
L 76.411465 156.879403 
L 82.377807 148.951144 
L 51.198335 147.723825 
z
" clip-path="url(#p984d40c065)" style="fill: #006427"/>
    <path d="M 172.603553 210.851056 
L 176.692265 201.853221 
L 208.404396 203.254747 
L 204.938954 212.309295 
z
" clip-path="url(#p984d40c065)" style="fill: #00451b"/>
    <path d="M 108.543459 207.962119 
L 108.240787 106.746884 
L 113.643918 99.722204 
L 113.855268 199.076123 
z
" clip-path="url(#p984d40c065)" style="fill: #00732d"/>
    <path d="M 45.284904 205.10933 
L 76.814932 206.531249 
L 76.411465 156.879403 
L 44.63008 155.602651 
z
" clip-path="url(#p984d40c065)" style="fill: #00732d"/>
    <path d="M 172.603553 210.851056 
L 172.938022 165.564297 
L 177.049532 157.396124 
L 176.692265 201.853221 
z
" clip-path="url(#p984d40c065)" style="fill: #00732d"/>
    <path d="M 140.472364 209.402026 
L 145.176495 200.460373 
L 145.469211 100.816206 
L 140.693671 107.885602 
z
" clip-path="url(#p984d40c065)" style="fill: #003615"/>
    <path d="M 204.938954 212.309295 
L 208.404396 203.254747 
L 208.99155 158.668265 
L 205.512471 166.888298 
z
" clip-path="url(#p984d40c065)" style="fill: #003615"/>
    <path d="M 172.938022 165.564297 
L 205.512471 166.888298 
L 208.99155 158.668265 
L 177.049532 157.396124 
z
" clip-path="url(#p984d40c065)" style="fill: #006427"/>
    <path d="M 108.240787 106.746884 
L 140.693671 107.885602 
L 145.469211 100.816206 
L 113.643918 99.722204 
z
" clip-path="url(#p984d40c065)" style="fill: #006427"/>
    <path d="M 108.543459 207.962119 
L 140.472364 209.402026 
L 140.693671 107.885602 
L 108.240787 106.746884 
z
" clip-path="url(#p984d40c065)" style="fill: #00732d"/>
    <path d="M 172.603553 210.851056 
L 204.938954 212.309295 
L 205.512471 166.888298 
L 172.938022 165.564297 
z
" clip-path="url(#p984d40c065)" style="fill: #00732d"/>
    <path d="M 38.518431 214.239203 
L 38.347249 202.304576 
L 70.554744 203.749054 
L 70.664092 215.71909 
z
" clip-path="url(#p984d40c065)" style="fill: #003615"/>
    <path d="M 103.016232 217.208482 
L 102.969516 205.202828 
L 135.593574 206.665988 
L 135.576845 218.707472 
z
" clip-path="url(#p984d40c065)" style="fill: #003615"/>
    <path d="M 31.473692 223.744535 
L 31.285075 211.582788 
L 38.347249 202.304576 
L 38.518431 214.239203 
z
" clip-path="url(#p984d40c065)" style="fill: #00732d"/>
    <path d="M 31.473692 223.744535 
L 38.518431 214.239203 
L 70.664092 215.71909 
L 64.259478 225.286008 
z
" clip-path="url(#p984d40c065)" style="fill: #00451b"/>
    <path d="M 31.285075 211.582788 
L 64.135183 213.087499 
L 70.554744 203.749054 
L 38.347249 202.304576 
z
" clip-path="url(#p984d40c065)" style="fill: #006427"/>
    <path d="M 64.259478 225.286008 
L 70.664092 215.71909 
L 70.554744 203.749054 
L 64.135183 213.087499 
z
" clip-path="url(#p984d40c065)" style="fill: #003615"/>
    <path d="M 168.347954 220.216152 
L 168.586447 184.654022 
L 201.7618 186.065287 
L 201.331606 221.734617 
z
" clip-path="url(#p984d40c065)" style="fill: #003615"/>
    <path d="M 97.260212 226.837588 
L 97.201089 214.602095 
L 102.969516 205.202828 
L 103.016232 217.208482 
z
" clip-path="url(#p984d40c065)" style="fill: #00732d"/>
    <path d="M 97.260212 226.837588 
L 103.016232 217.208482 
L 135.576845 218.707472 
L 130.478016 228.399373 
z
" clip-path="url(#p984d40c065)" style="fill: #00451b"/>
    <path d="M 97.201089 214.602095 
L 130.484926 216.126672 
L 135.593574 206.665988 
L 102.969516 205.202828 
z
" clip-path="url(#p984d40c065)" style="fill: #006427"/>
    <path d="M 130.478016 228.399373 
L 135.576845 218.707472 
L 135.593574 206.665988 
L 130.484926 216.126672 
z
" clip-path="url(#p984d40c065)" style="fill: #003615"/>
    <path d="M 31.473692 223.744535 
L 64.259478 225.286008 
L 64.135183 213.087499 
L 31.285075 211.582788 
z
" clip-path="url(#p984d40c065)" style="fill: #00732d"/>
    <path d="M 163.915037 229.971464 
L 168.347954 220.216152 
L 201.331606 221.734617 
L 197.573453 231.553965 
z
" clip-path="url(#p984d40c065)" style="fill: #00451b"/>
    <path d="M 163.915037 229.971464 
L 164.132415 193.72155 
L 168.586447 184.654022 
L 168.347954 220.216152 
z
" clip-path="url(#p984d40c065)" style="fill: #00732d"/>
    <path d="M 197.573453 231.553965 
L 201.331606 221.734617 
L 201.7618 186.065287 
L 197.990481 195.192685 
z
" clip-path="url(#p984d40c065)" style="fill: #003615"/>
    <path d="M 97.260212 226.837588 
L 130.478016 228.399373 
L 130.484926 216.126672 
L 97.201089 214.602095 
z
" clip-path="url(#p984d40c065)" style="fill: #00732d"/>
    <path d="M 164.132415 193.72155 
L 197.990481 195.192685 
L 201.7618 186.065287 
L 168.586447 184.654022 
z
" clip-path="url(#p984d40c065)" style="fill: #006427"/>
    <path d="M 163.915037 229.971464 
L 197.573453 231.553965 
L 197.990481 195.192685 
L 164.132415 193.72155 
z
" clip-path="url(#p984d40c065)" style="fill: #00732d"/>
   </g>
   <g id="text_13">
    <!-- Roles: 1 -->
    <g transform="translate(89.799563 30.288)scale(0.168 -0.168)">
     <defs>
      <path id="DejaVuSans-3a" d="M 750 794 
L 1409 794 
L 1409 0 
L 750 0 
L 750 794 
z
M 750 3309 
L 1409 3309 
L 1409 2516 
L 750 2516 
L 750 3309 
z
" transform="scale(0.015625)"/>
     </defs>
     <use xlink:href="#DejaVuSans-52"/>
     <use xlink:href="#DejaVuSans-6f" x="64.982422"/>
     <use xlink:href="#DejaVuSans-6c" x="126.164062"/>
     <use xlink:href="#DejaVuSans-65" x="153.947266"/>
     <use xlink:href="#DejaVuSans-73" x="215.470703"/>
     <use xlink:href="#DejaVuSans-3a" x="267.570312"/>
     <use xlink:href="#DejaVuSans-20" x="301.261719"/>
     <use xlink:href="#DejaVuSans-31" x="333.048828"/>
    </g>
   </g>
  </g>
  <g id="patch_6">
   <path d="M 329.04 288 
L 617.04 288 
L 617.04 0 
L 329.04 0 
z
" style="fill: #ffffff"/>
  </g>
  <g id="pane3d_4">
   <g id="patch_7">
    <path d="M 366.815404 229.502734 
L 405.40358 178.910342 
L 403.939491 51.902074 
L 364.288247 88.259858 
" style="fill: #f2f2f2; opacity: 0.5; stroke: #f2f2f2; stroke-linejoin: miter"/>
   </g>
  </g>
  <g id="pane3d_5">
   <g id="patch_8">
    <path d="M 405.40358 178.910342 
L 577.062348 186.196718 
L 579.147592 57.127489 
L 403.939491 51.902074 
" style="fill: #e6e6e6; opacity: 0.5; stroke: #e6e6e6; stroke-linejoin: miter"/>
   </g>
  </g>
  <g id="pane3d_6">
   <g id="patch_9">
    <path d="M 366.815404 229.502734 
L 558.466471 238.636747 
L 577.062348 186.196718 
L 405.40358 178.910342 
" style="fill: #ececec; opacity: 0.5; stroke: #ececec; stroke-linejoin: miter"/>
   </g>
  </g>
  <g id="axis3d_4">
   <g id="line2d_13">
    <path d="M 366.815404 229.502734 
L 558.466471 238.636747 
" style="fill: none; stroke: #000000; stroke-width: 0.8; stroke-linecap: square"/>
   </g>
   <g id="text_14">
    <!-- Raster files -->
    <g transform="translate(415.768413 277.557892)rotate(-357.271371)scale(0.14 -0.14)">
     <use xlink:href="#DejaVuSans-52"/>
     <use xlink:href="#DejaVuSans-61" x="67.232422"/>
     <use xlink:href="#DejaVuSans-73" x="128.511719"/>
     <use xlink:href="#DejaVuSans-74" x="180.611328"/>
     <use xlink:href="#DejaVuSans-65" x="219.820312"/>
     <use xlink:href="#DejaVuSans-72" x="281.34375"/>
     <use xlink:href="#DejaVuSans-20" x="322.457031"/>
     <use xlink:href="#DejaVuSans-66" x="354.244141"/>
     <use xlink:href="#DejaVuSans-69" x="389.449219"/>
     <use xlink:href="#DejaVuSans-6c" x="417.232422"/>
     <use xlink:href="#DejaVuSans-65" x="445.015625"/>
     <use xlink:href="#DejaVuSans-73" x="506.539062"/>
    </g>
   </g>
   <g id="Line3DCollection_4">
    <path d="M 395.275083 230.859111 
L 430.938428 179.994216 
L 429.994564 52.679142 
" style="fill: none; stroke: #b0b0b0; stroke-width: 0.8"/>
    <path d="M 461.733176 234.026477 
L 490.506766 182.522705 
L 490.787025 54.492219 
" style="fill: none; stroke: #b0b0b0; stroke-width: 0.8"/>
    <path d="M 529.076219 237.236019 
L 550.783061 185.081245 
L 552.316999 56.327292 
" style="fill: none; stroke: #b0b0b0; stroke-width: 0.8"/>
   </g>
   <g id="xtick_10">
    <g id="line2d_14">
     <path d="M 395.593991 230.404268 
L 394.635445 231.771397 
" style="fill: none; stroke: #000000; stroke-width: 0.8; stroke-linecap: square"/>
    </g>
    <g id="text_15">
     <!-- 1 -->
     <g transform="translate(387.881361 256.584824)scale(0.14 -0.14)">
      <use xlink:href="#DejaVuSans-31"/>
     </g>
    </g>
   </g>
   <g id="xtick_11">
    <g id="line2d_15">
     <path d="M 461.990654 233.5656 
L 461.21674 234.950882 
" style="fill: none; stroke: #000000; stroke-width: 0.8; stroke-linecap: square"/>
    </g>
    <g id="text_16">
     <!-- 2 -->
     <g transform="translate(454.817657 259.876453)scale(0.14 -0.14)">
      <use xlink:href="#DejaVuSans-32"/>
     </g>
    </g>
   </g>
   <g id="xtick_12">
    <g id="line2d_16">
     <path d="M 529.270598 236.768988 
L 528.686337 238.172786 
" style="fill: none; stroke: #000000; stroke-width: 0.8; stroke-linecap: square"/>
    </g>
    <g id="text_17">
     <!-- 3 -->
     <g transform="translate(522.651992 263.212242)scale(0.14 -0.14)">
      <use xlink:href="#DejaVuSans-33"/>
     </g>
    </g>
   </g>
  </g>
  <g id="axis3d_5">
   <g id="line2d_17">
    <path d="M 577.062348 186.196718 
L 558.466471 238.636747 
" style="fill: none; stroke: #000000; stroke-width: 0.8; stroke-linecap: square"/>
   </g>
   <g id="text_18">
    <!-- Vector files -->
    <g transform="translate(590.551093 273.311588)rotate(-70.474869)scale(0.14 -0.14)">
     <use xlink:href="#DejaVuSans-56"/>
     <use xlink:href="#DejaVuSans-65" x="60.658203"/>
     <use xlink:href="#DejaVuSans-63" x="122.181641"/>
     <use xlink:href="#DejaVuSans-74" x="177.162109"/>
     <use xlink:href="#DejaVuSans-6f" x="216.371094"/>
     <use xlink:href="#DejaVuSans-72" x="277.552734"/>
     <use xlink:href="#DejaVuSans-20" x="318.666016"/>
     <use xlink:href="#DejaVuSans-66" x="350.453125"/>
     <use xlink:href="#DejaVuSans-69" x="385.658203"/>
     <use xlink:href="#DejaVuSans-6c" x="413.441406"/>
     <use xlink:href="#DejaVuSans-65" x="441.224609"/>
     <use xlink:href="#DejaVuSans-73" x="502.748047"/>
    </g>
   </g>
   <g id="Line3DCollection_5">
    <path d="M 370.876793 82.218561 
L 373.214335 221.11319 
L 561.555366 229.926121 
" style="fill: none; stroke: #b0b0b0; stroke-width: 0.8"/>
    <path d="M 385.246814 69.042124 
L 387.18871 202.791592 
L 568.293873 210.923657 
" style="fill: none; stroke: #b0b0b0; stroke-width: 0.8"/>
    <path d="M 398.514161 56.876772 
L 400.112628 185.847232 
L 574.517057 193.374392 
" style="fill: none; stroke: #b0b0b0; stroke-width: 0.8"/>
   </g>
   <g id="xtick_13">
    <g id="line2d_18">
     <path d="M 560.020564 229.854304 
L 564.626353 230.06982 
" style="fill: none; stroke: #000000; stroke-width: 0.8; stroke-linecap: square"/>
    </g>
    <g id="text_19">
     <!-- 1 -->
     <g transform="translate(571.662561 251.843447)scale(0.14 -0.14)">
      <use xlink:href="#DejaVuSans-31"/>
     </g>
    </g>
   </g>
   <g id="xtick_14">
    <g id="line2d_19">
     <path d="M 566.81911 210.857436 
L 571.244676 211.056155 
" style="fill: none; stroke: #000000; stroke-width: 0.8; stroke-linecap: square"/>
    </g>
    <g id="text_20">
     <!-- 2 -->
     <g transform="translate(577.820499 232.397793)scale(0.14 -0.14)">
      <use xlink:href="#DejaVuSans-32"/>
     </g>
    </g>
   </g>
   <g id="xtick_15">
    <g id="line2d_20">
     <path d="M 573.097814 193.313139 
L 577.356726 193.49695 
" style="fill: none; stroke: #000000; stroke-width: 0.8; stroke-linecap: square"/>
    </g>
    <g id="text_21">
     <!-- 3 -->
     <g transform="translate(583.507636 214.438845)scale(0.14 -0.14)">
      <use xlink:href="#DejaVuSans-33"/>
     </g>
    </g>
   </g>
  </g>
  <g id="axis3d_6">
   <g id="line2d_21">
    <path d="M 577.062348 186.196718 
L 579.147592 57.127489 
" style="fill: none; stroke: #000000; stroke-width: 0.8; stroke-linecap: square"/>
   </g>
   <g id="text_22">
    <!-- Arithmetic mean -->
    <g transform="translate(624.653369 171.737868)rotate(-89.074409)scale(0.14 -0.14)">
     <use xlink:href="#DejaVuSans-41"/>
     <use xlink:href="#DejaVuSans-72" x="68.408203"/>
     <use xlink:href="#DejaVuSans-69" x="109.521484"/>
     <use xlink:href="#DejaVuSans-74" x="137.304688"/>
     <use xlink:href="#DejaVuSans-68" x="176.513672"/>
     <use xlink:href="#DejaVuSans-6d" x="239.892578"/>
     <use xlink:href="#DejaVuSans-65" x="337.304688"/>
     <use xlink:href="#DejaVuSans-74" x="398.828125"/>
     <use xlink:href="#DejaVuSans-69" x="438.037109"/>
     <use xlink:href="#DejaVuSans-63" x="465.820312"/>
     <use xlink:href="#DejaVuSans-20" x="520.800781"/>
     <use xlink:href="#DejaVuSans-6d" x="552.587891"/>
     <use xlink:href="#DejaVuSans-65" x="650"/>
     <use xlink:href="#DejaVuSans-61" x="711.523438"/>
     <use xlink:href="#DejaVuSans-6e" x="772.802734"/>
    </g>
    <!-- of duration [s] -->
    <g transform="translate(640.469926 163.222569)rotate(-89.074409)scale(0.14 -0.14)">
     <use xlink:href="#DejaVuSans-6f"/>
     <use xlink:href="#DejaVuSans-66" x="61.181641"/>
     <use xlink:href="#DejaVuSans-20" x="96.386719"/>
     <use xlink:href="#DejaVuSans-64" x="128.173828"/>
     <use xlink:href="#DejaVuSans-75" x="191.650391"/>
     <use xlink:href="#DejaVuSans-72" x="255.029297"/>
     <use xlink:href="#DejaVuSans-61" x="296.142578"/>
     <use xlink:href="#DejaVuSans-74" x="357.421875"/>
     <use xlink:href="#DejaVuSans-69" x="396.630859"/>
     <use xlink:href="#DejaVuSans-6f" x="424.414062"/>
     <use xlink:href="#DejaVuSans-6e" x="485.595703"/>
     <use xlink:href="#DejaVuSans-20" x="548.974609"/>
     <use xlink:href="#DejaVuSans-5b" x="580.761719"/>
     <use xlink:href="#DejaVuSans-73" x="619.775391"/>
     <use xlink:href="#DejaVuSans-5d" x="671.875"/>
    </g>
   </g>
   <g id="Line3DCollection_6">
    <path d="M 577.490002 159.726472 
L 405.103233 152.855534 
L 366.297976 200.583692 
" style="fill: none; stroke: #b0b0b0; stroke-width: 0.8"/>
    <path d="M 578.100366 121.94709 
L 404.674641 115.67555 
L 365.558719 159.266574 
" style="fill: none; stroke: #b0b0b0; stroke-width: 0.8"/>
    <path d="M 578.718185 83.706284 
L 404.240902 78.049206 
L 364.809516 117.393579 
" style="fill: none; stroke: #b0b0b0; stroke-width: 0.8"/>
   </g>
   <g id="xtick_16">
    <g id="line2d_22">
     <path d="M 576.087464 159.67057 
L 580.296233 159.838322 
" style="fill: none; stroke: #000000; stroke-width: 0.8; stroke-linecap: square"/>
    </g>
    <g id="text_23">
     <!-- 150 -->
     <g transform="translate(578.743492 167.536916)scale(0.14 -0.14)">
      <use xlink:href="#DejaVuSans-31"/>
      <use xlink:href="#DejaVuSans-35" x="63.623047"/>
      <use xlink:href="#DejaVuSans-30" x="127.246094"/>
     </g>
    </g>
   </g>
   <g id="xtick_17">
    <g id="line2d_23">
     <path d="M 576.689232 121.89606 
L 580.923803 122.049193 
" style="fill: none; stroke: #000000; stroke-width: 0.8; stroke-linecap: square"/>
    </g>
    <g id="text_24">
     <!-- 200 -->
     <g transform="translate(579.437687 130.004029)scale(0.14 -0.14)">
      <use xlink:href="#DejaVuSans-32"/>
      <use xlink:href="#DejaVuSans-30" x="63.623047"/>
      <use xlink:href="#DejaVuSans-30" x="127.246094"/>
     </g>
    </g>
   </g>
   <g id="xtick_18">
    <g id="line2d_24">
     <path d="M 577.298348 83.660249 
L 581.559041 83.798393 
" style="fill: none; stroke: #000000; stroke-width: 0.8; stroke-linecap: square"/>
    </g>
    <g id="text_25">
     <!-- 250 -->
     <g transform="translate(580.140302 92.015946)scale(0.14 -0.14)">
      <use xlink:href="#DejaVuSans-32"/>
      <use xlink:href="#DejaVuSans-35" x="63.623047"/>
      <use xlink:href="#DejaVuSans-30" x="127.246094"/>
     </g>
    </g>
   </g>
  </g>
  <g id="axes_2">
   <g id="Poly3DCollection_2">
    <path d="M 413.990378 179.762449 
L 413.68149 149.315279 
L 443.644127 150.497965 
L 443.807172 181.029522 
z
" clip-path="url(#p3dde99b01e)" style="fill: #003615"/>
    <path d="M 473.801117 182.304124 
L 473.781868 144.174383 
L 504.140558 145.350179 
L 503.973796 183.586321 
z
" clip-path="url(#p3dde99b01e)" style="fill: #003615"/>
    <path d="M 407.966496 187.890358 
L 413.990378 179.762449 
L 443.807172 181.029522 
L 438.33332 189.20611 
z
" clip-path="url(#p3dde99b01e)" style="fill: #00451b"/>
    <path d="M 407.966496 187.890358 
L 407.621582 156.902466 
L 413.68149 149.315279 
L 413.990378 179.762449 
z
" clip-path="url(#p3dde99b01e)" style="fill: #00732d"/>
    <path d="M 438.33332 189.20611 
L 443.807172 181.029522 
L 443.644127 150.497965 
L 438.139694 158.130819 
z
" clip-path="url(#p3dde99b01e)" style="fill: #003615"/>
    <path d="M 407.621582 156.902466 
L 438.139694 158.130819 
L 443.644127 150.497965 
L 413.68149 149.315279 
z
" clip-path="url(#p3dde99b01e)" style="fill: #006427"/>
    <path d="M 534.326812 184.876181 
L 534.667814 148.045632 
L 565.385781 149.239905 
L 564.861786 186.173774 
z
" clip-path="url(#p3dde99b01e)" style="fill: #003615"/>
    <path d="M 468.884012 190.52983 
L 473.801117 182.304124 
L 503.973796 183.586321 
L 499.620246 191.861588 
z
" clip-path="url(#p3dde99b01e)" style="fill: #00451b"/>
    <path d="M 468.884012 190.52983 
L 468.833579 151.718239 
L 473.781868 144.174383 
L 473.801117 182.304124 
z
" clip-path="url(#p3dde99b01e)" style="fill: #00732d"/>
    <path d="M 499.620246 191.861588 
L 503.973796 183.586321 
L 504.140558 145.350179 
L 499.76286 152.939771 
z
" clip-path="url(#p3dde99b01e)" style="fill: #003615"/>
    <path d="M 407.966496 187.890358 
L 438.33332 189.20611 
L 438.139694 158.130819 
L 407.621582 156.902466 
z
" clip-path="url(#p3dde99b01e)" style="fill: #00732d"/>
    <path d="M 530.543717 193.201459 
L 534.326812 184.876181 
L 564.861786 186.173774 
L 561.656143 194.549517 
z
" clip-path="url(#p3dde99b01e)" style="fill: #00451b"/>
    <path d="M 468.833579 151.718239 
L 499.76286 152.939771 
L 504.140558 145.350179 
L 473.781868 144.174383 
z
" clip-path="url(#p3dde99b01e)" style="fill: #006427"/>
    <path d="M 530.543717 193.201459 
L 530.868406 155.708755 
L 534.667814 148.045632 
L 534.326812 184.876181 
z
" clip-path="url(#p3dde99b01e)" style="fill: #00732d"/>
    <path d="M 561.656143 194.549517 
L 564.861786 186.173774 
L 565.385781 149.239905 
L 562.170834 156.94976 
z
" clip-path="url(#p3dde99b01e)" style="fill: #003615"/>
    <path d="M 530.868406 155.708755 
L 562.170834 156.94976 
L 565.385781 149.239905 
L 534.667814 148.045632 
z
" clip-path="url(#p3dde99b01e)" style="fill: #006427"/>
    <path d="M 468.884012 190.52983 
L 499.620246 191.861588 
L 499.76286 152.939771 
L 468.833579 151.718239 
z
" clip-path="url(#p3dde99b01e)" style="fill: #00732d"/>
    <path d="M 530.543717 193.201459 
L 561.656143 194.549517 
L 562.170834 156.94976 
L 530.868406 155.708755 
z
" clip-path="url(#p3dde99b01e)" style="fill: #00732d"/>
    <path d="M 463.775268 199.076123 
L 463.71108 168.901737 
L 495.185392 170.198884 
L 495.096495 200.460373 
z
" clip-path="url(#p3dde99b01e)" style="fill: #003615"/>
    <path d="M 395.204904 205.10933 
L 401.709279 196.333101 
L 432.646787 197.700392 
L 426.734932 206.531249 
z
" clip-path="url(#p3dde99b01e)" style="fill: #00451b"/>
    <path d="M 401.709279 196.333101 
L 400.161023 68.97816 
L 431.732434 69.973729 
L 432.646787 197.700392 
z
" clip-path="url(#p3dde99b01e)" style="fill: #003615"/>
    <path d="M 526.612265 201.853221 
L 526.824755 175.41168 
L 558.673612 176.736493 
L 558.324396 203.254747 
z
" clip-path="url(#p3dde99b01e)" style="fill: #003615"/>
    <path d="M 458.463459 207.962119 
L 463.775268 199.076123 
L 495.096495 200.460373 
L 490.392364 209.402026 
z
" clip-path="url(#p3dde99b01e)" style="fill: #00451b"/>
    <path d="M 458.463459 207.962119 
L 458.371556 177.229274 
L 463.71108 168.901737 
L 463.775268 199.076123 
z
" clip-path="url(#p3dde99b01e)" style="fill: #00732d"/>
    <path d="M 395.204904 205.10933 
L 393.488853 75.370605 
L 400.161023 68.97816 
L 401.709279 196.333101 
z
" clip-path="url(#p3dde99b01e)" style="fill: #00732d"/>
    <path d="M 490.392364 209.402026 
L 495.096495 200.460373 
L 495.185392 170.198884 
L 490.459559 178.578839 
z
" clip-path="url(#p3dde99b01e)" style="fill: #003615"/>
    <path d="M 458.371556 177.229274 
L 490.459559 178.578839 
L 495.185392 170.198884 
L 463.71108 168.901737 
z
" clip-path="url(#p3dde99b01e)" style="fill: #006427"/>
    <path d="M 426.734932 206.531249 
L 432.646787 197.700392 
L 431.732434 69.973729 
L 425.677551 76.406794 
z
" clip-path="url(#p3dde99b01e)" style="fill: #003615"/>
    <path d="M 522.523553 210.851056 
L 526.612265 201.853221 
L 558.324396 203.254747 
L 554.858954 212.309295 
z
" clip-path="url(#p3dde99b01e)" style="fill: #00451b"/>
    <path d="M 522.523553 210.851056 
L 522.722472 183.91763 
L 526.824755 175.41168 
L 526.612265 201.853221 
z
" clip-path="url(#p3dde99b01e)" style="fill: #00732d"/>
    <path d="M 554.858954 212.309295 
L 558.324396 203.254747 
L 558.673612 176.736493 
L 555.200039 185.296289 
z
" clip-path="url(#p3dde99b01e)" style="fill: #003615"/>
    <path d="M 522.722472 183.91763 
L 555.200039 185.296289 
L 558.673612 176.736493 
L 526.824755 175.41168 
z
" clip-path="url(#p3dde99b01e)" style="fill: #006427"/>
    <path d="M 458.463459 207.962119 
L 490.392364 209.402026 
L 490.459559 178.578839 
L 458.371556 177.229274 
z
" clip-path="url(#p3dde99b01e)" style="fill: #00732d"/>
    <path d="M 395.204904 205.10933 
L 426.734932 206.531249 
L 425.677551 76.406794 
L 393.488853 75.370605 
z
" clip-path="url(#p3dde99b01e)" style="fill: #00732d"/>
    <path d="M 393.488853 75.370605 
L 425.677551 76.406794 
L 431.732434 69.973729 
L 400.161023 68.97816 
z
" clip-path="url(#p3dde99b01e)" style="fill: #006427"/>
    <path d="M 522.523553 210.851056 
L 554.858954 212.309295 
L 555.200039 185.296289 
L 522.722472 183.91763 
z
" clip-path="url(#p3dde99b01e)" style="fill: #00732d"/>
    <path d="M 388.438431 214.239203 
L 388.049466 187.120935 
L 420.335624 188.52015 
L 420.584092 215.71909 
z
" clip-path="url(#p3dde99b01e)" style="fill: #003615"/>
    <path d="M 452.936232 217.208482 
L 452.817531 186.703094 
L 485.539352 188.110749 
L 485.496845 218.707472 
z
" clip-path="url(#p3dde99b01e)" style="fill: #003615"/>
    <path d="M 381.393692 223.744535 
L 388.438431 214.239203 
L 420.584092 215.71909 
L 414.179478 225.286008 
z
" clip-path="url(#p3dde99b01e)" style="fill: #00451b"/>
    <path d="M 381.393692 223.744535 
L 380.965089 196.1088 
L 388.049466 187.120935 
L 388.438431 214.239203 
z
" clip-path="url(#p3dde99b01e)" style="fill: #00732d"/>
    <path d="M 414.179478 225.286008 
L 420.584092 215.71909 
L 420.335624 188.52015 
L 413.897034 197.566508 
z
" clip-path="url(#p3dde99b01e)" style="fill: #003615"/>
    <path d="M 380.965089 196.1088 
L 413.897034 197.566508 
L 420.335624 188.52015 
L 388.049466 187.120935 
z
" clip-path="url(#p3dde99b01e)" style="fill: #006427"/>
    <path d="M 518.267954 220.216152 
L 518.533723 180.586889 
L 551.731001 181.985808 
L 551.251606 221.734617 
z
" clip-path="url(#p3dde99b01e)" style="fill: #003615"/>
    <path d="M 447.180212 226.837588 
L 452.936232 217.208482 
L 485.496845 218.707472 
L 480.398016 228.399373 
z
" clip-path="url(#p3dde99b01e)" style="fill: #00451b"/>
    <path d="M 447.180212 226.837588 
L 447.029976 195.746268 
L 452.817531 186.703094 
L 452.936232 217.208482 
z
" clip-path="url(#p3dde99b01e)" style="fill: #00732d"/>
    <path d="M 480.398016 228.399373 
L 485.496845 218.707472 
L 485.539352 188.110749 
L 480.415576 197.213193 
z
" clip-path="url(#p3dde99b01e)" style="fill: #003615"/>
    <path d="M 447.029976 195.746268 
L 480.415576 197.213193 
L 485.539352 188.110749 
L 452.817531 186.703094 
z
" clip-path="url(#p3dde99b01e)" style="fill: #006427"/>
    <path d="M 381.393692 223.744535 
L 414.179478 225.286008 
L 413.897034 197.566508 
L 380.965089 196.1088 
z
" clip-path="url(#p3dde99b01e)" style="fill: #00732d"/>
    <path d="M 513.835037 229.971464 
L 518.267954 220.216152 
L 551.251606 221.734617 
L 547.493453 231.553965 
z
" clip-path="url(#p3dde99b01e)" style="fill: #00451b"/>
    <path d="M 513.835037 229.971464 
L 514.07728 189.575202 
L 518.533723 180.586889 
L 518.267954 220.216152 
z
" clip-path="url(#p3dde99b01e)" style="fill: #00732d"/>
    <path d="M 547.493453 231.553965 
L 551.251606 221.734617 
L 551.731001 181.985808 
L 547.958183 191.033507 
z
" clip-path="url(#p3dde99b01e)" style="fill: #003615"/>
    <path d="M 447.180212 226.837588 
L 480.398016 228.399373 
L 480.415576 197.213193 
L 447.029976 195.746268 
z
" clip-path="url(#p3dde99b01e)" style="fill: #00732d"/>
    <path d="M 514.07728 189.575202 
L 547.958183 191.033507 
L 551.731001 181.985808 
L 518.533723 180.586889 
z
" clip-path="url(#p3dde99b01e)" style="fill: #006427"/>
    <path d="M 513.835037 229.971464 
L 547.493453 231.553965 
L 547.958183 191.033507 
L 514.07728 189.575202 
z
" clip-path="url(#p3dde99b01e)" style="fill: #00732d"/>
   </g>
   <g id="text_26">
    <!-- Roles: 2 -->
    <g transform="translate(439.719563 30.288)scale(0.168 -0.168)">
     <use xlink:href="#DejaVuSans-52"/>
     <use xlink:href="#DejaVuSans-6f" x="64.982422"/>
     <use xlink:href="#DejaVuSans-6c" x="126.164062"/>
     <use xlink:href="#DejaVuSans-65" x="153.947266"/>
     <use xlink:href="#DejaVuSans-73" x="215.470703"/>
     <use xlink:href="#DejaVuSans-3a" x="267.570312"/>
     <use xlink:href="#DejaVuSans-20" x="301.261719"/>
     <use xlink:href="#DejaVuSans-32" x="333.048828"/>
    </g>
   </g>
  </g>
  <g id="patch_10">
   <path d="M 154.08 576 
L 442.08 576 
L 442.08 288 
L 154.08 288 
z
" style="fill: #ffffff"/>
  </g>
  <g id="pane3d_7">
   <g id="patch_11">
    <path d="M 191.855404 517.502734 
L 230.44358 466.910342 
L 228.979491 339.902074 
L 189.328247 376.259858 
" style="fill: #f2f2f2; opacity: 0.5; stroke: #f2f2f2; stroke-linejoin: miter"/>
   </g>
  </g>
  <g id="pane3d_8">
   <g id="patch_12">
    <path d="M 230.44358 466.910342 
L 402.102348 474.196718 
L 404.187592 345.127489 
L 228.979491 339.902074 
" style="fill: #e6e6e6; opacity: 0.5; stroke: #e6e6e6; stroke-linejoin: miter"/>
   </g>
  </g>
  <g id="pane3d_9">
   <g id="patch_13">
    <path d="M 191.855404 517.502734 
L 383.506471 526.636747 
L 402.102348 474.196718 
L 230.44358 466.910342 
" style="fill: #ececec; opacity: 0.5; stroke: #ececec; stroke-linejoin: miter"/>
   </g>
  </g>
  <g id="axis3d_7">
   <g id="line2d_25">
    <path d="M 191.855404 517.502734 
L 383.506471 526.636747 
" style="fill: none; stroke: #000000; stroke-width: 0.8; stroke-linecap: square"/>
   </g>
   <g id="text_27">
    <!-- Raster files -->
    <g transform="translate(240.808413 565.557892)rotate(-357.271371)scale(0.14 -0.14)">
     <use xlink:href="#DejaVuSans-52"/>
     <use xlink:href="#DejaVuSans-61" x="67.232422"/>
     <use xlink:href="#DejaVuSans-73" x="128.511719"/>
     <use xlink:href="#DejaVuSans-74" x="180.611328"/>
     <use xlink:href="#DejaVuSans-65" x="219.820312"/>
     <use xlink:href="#DejaVuSans-72" x="281.34375"/>
     <use xlink:href="#DejaVuSans-20" x="322.457031"/>
     <use xlink:href="#DejaVuSans-66" x="354.244141"/>
     <use xlink:href="#DejaVuSans-69" x="389.449219"/>
     <use xlink:href="#DejaVuSans-6c" x="417.232422"/>
     <use xlink:href="#DejaVuSans-65" x="445.015625"/>
     <use xlink:href="#DejaVuSans-73" x="506.539062"/>
    </g>
   </g>
   <g id="Line3DCollection_7">
    <path d="M 220.315083 518.859111 
L 255.978428 467.994216 
L 255.034564 340.679142 
" style="fill: none; stroke: #b0b0b0; stroke-width: 0.8"/>
    <path d="M 286.773176 522.026477 
L 315.546766 470.522705 
L 315.827025 342.492219 
" style="fill: none; stroke: #b0b0b0; stroke-width: 0.8"/>
    <path d="M 354.116219 525.236019 
L 375.823061 473.081245 
L 377.356999 344.327292 
" style="fill: none; stroke: #b0b0b0; stroke-width: 0.8"/>
   </g>
   <g id="xtick_19">
    <g id="line2d_26">
     <path d="M 220.633991 518.404268 
L 219.675445 519.771397 
" style="fill: none; stroke: #000000; stroke-width: 0.8; stroke-linecap: square"/>
    </g>
    <g id="text_28">
     <!-- 1 -->
     <g transform="translate(212.921361 544.584824)scale(0.14 -0.14)">
      <use xlink:href="#DejaVuSans-31"/>
     </g>
    </g>
   </g>
   <g id="xtick_20">
    <g id="line2d_27">
     <path d="M 287.030654 521.5656 
L 286.25674 522.950882 
" style="fill: none; stroke: #000000; stroke-width: 0.8; stroke-linecap: square"/>
    </g>
    <g id="text_29">
     <!-- 2 -->
     <g transform="translate(279.857657 547.876453)scale(0.14 -0.14)">
      <use xlink:href="#DejaVuSans-32"/>
     </g>
    </g>
   </g>
   <g id="xtick_21">
    <g id="line2d_28">
     <path d="M 354.310598 524.768988 
L 353.726337 526.172786 
" style="fill: none; stroke: #000000; stroke-width: 0.8; stroke-linecap: square"/>
    </g>
    <g id="text_30">
     <!-- 3 -->
     <g transform="translate(347.691992 551.212242)scale(0.14 -0.14)">
      <use xlink:href="#DejaVuSans-33"/>
     </g>
    </g>
   </g>
  </g>
  <g id="axis3d_8">
   <g id="line2d_29">
    <path d="M 402.102348 474.196718 
L 383.506471 526.636747 
" style="fill: none; stroke: #000000; stroke-width: 0.8; stroke-linecap: square"/>
   </g>
   <g id="text_31">
    <!-- Vector files -->
    <g transform="translate(415.591093 561.311588)rotate(-70.474869)scale(0.14 -0.14)">
     <use xlink:href="#DejaVuSans-56"/>
     <use xlink:href="#DejaVuSans-65" x="60.658203"/>
     <use xlink:href="#DejaVuSans-63" x="122.181641"/>
     <use xlink:href="#DejaVuSans-74" x="177.162109"/>
     <use xlink:href="#DejaVuSans-6f" x="216.371094"/>
     <use xlink:href="#DejaVuSans-72" x="277.552734"/>
     <use xlink:href="#DejaVuSans-20" x="318.666016"/>
     <use xlink:href="#DejaVuSans-66" x="350.453125"/>
     <use xlink:href="#DejaVuSans-69" x="385.658203"/>
     <use xlink:href="#DejaVuSans-6c" x="413.441406"/>
     <use xlink:href="#DejaVuSans-65" x="441.224609"/>
     <use xlink:href="#DejaVuSans-73" x="502.748047"/>
    </g>
   </g>
   <g id="Line3DCollection_8">
    <path d="M 195.916793 370.218561 
L 198.254335 509.11319 
L 386.595366 517.926121 
" style="fill: none; stroke: #b0b0b0; stroke-width: 0.8"/>
    <path d="M 210.286814 357.042124 
L 212.22871 490.791592 
L 393.333873 498.923657 
" style="fill: none; stroke: #b0b0b0; stroke-width: 0.8"/>
    <path d="M 223.554161 344.876772 
L 225.152628 473.847232 
L 399.557057 481.374392 
" style="fill: none; stroke: #b0b0b0; stroke-width: 0.8"/>
   </g>
   <g id="xtick_22">
    <g id="line2d_30">
     <path d="M 385.060564 517.854304 
L 389.666353 518.06982 
" style="fill: none; stroke: #000000; stroke-width: 0.8; stroke-linecap: square"/>
    </g>
    <g id="text_32">
     <!-- 1 -->
     <g transform="translate(396.702561 539.843447)scale(0.14 -0.14)">
      <use xlink:href="#DejaVuSans-31"/>
     </g>
    </g>
   </g>
   <g id="xtick_23">
    <g id="line2d_31">
     <path d="M 391.85911 498.857436 
L 396.284676 499.056155 
" style="fill: none; stroke: #000000; stroke-width: 0.8; stroke-linecap: square"/>
    </g>
    <g id="text_33">
     <!-- 2 -->
     <g transform="translate(402.860499 520.397793)scale(0.14 -0.14)">
      <use xlink:href="#DejaVuSans-32"/>
     </g>
    </g>
   </g>
   <g id="xtick_24">
    <g id="line2d_32">
     <path d="M 398.137814 481.313139 
L 402.396726 481.49695 
" style="fill: none; stroke: #000000; stroke-width: 0.8; stroke-linecap: square"/>
    </g>
    <g id="text_34">
     <!-- 3 -->
     <g transform="translate(408.547636 502.438845)scale(0.14 -0.14)">
      <use xlink:href="#DejaVuSans-33"/>
     </g>
    </g>
   </g>
  </g>
  <g id="axis3d_9">
   <g id="line2d_33">
    <path d="M 402.102348 474.196718 
L 404.187592 345.127489 
" style="fill: none; stroke: #000000; stroke-width: 0.8; stroke-linecap: square"/>
   </g>
   <g id="text_35">
    <!-- Arithmetic mean -->
    <g transform="translate(449.693369 459.737868)rotate(-89.074409)scale(0.14 -0.14)">
     <use xlink:href="#DejaVuSans-41"/>
     <use xlink:href="#DejaVuSans-72" x="68.408203"/>
     <use xlink:href="#DejaVuSans-69" x="109.521484"/>
     <use xlink:href="#DejaVuSans-74" x="137.304688"/>
     <use xlink:href="#DejaVuSans-68" x="176.513672"/>
     <use xlink:href="#DejaVuSans-6d" x="239.892578"/>
     <use xlink:href="#DejaVuSans-65" x="337.304688"/>
     <use xlink:href="#DejaVuSans-74" x="398.828125"/>
     <use xlink:href="#DejaVuSans-69" x="438.037109"/>
     <use xlink:href="#DejaVuSans-63" x="465.820312"/>
     <use xlink:href="#DejaVuSans-20" x="520.800781"/>
     <use xlink:href="#DejaVuSans-6d" x="552.587891"/>
     <use xlink:href="#DejaVuSans-65" x="650"/>
     <use xlink:href="#DejaVuSans-61" x="711.523438"/>
     <use xlink:href="#DejaVuSans-6e" x="772.802734"/>
    </g>
    <!-- of duration [s] -->
    <g transform="translate(465.509926 451.222569)rotate(-89.074409)scale(0.14 -0.14)">
     <use xlink:href="#DejaVuSans-6f"/>
     <use xlink:href="#DejaVuSans-66" x="61.181641"/>
     <use xlink:href="#DejaVuSans-20" x="96.386719"/>
     <use xlink:href="#DejaVuSans-64" x="128.173828"/>
     <use xlink:href="#DejaVuSans-75" x="191.650391"/>
     <use xlink:href="#DejaVuSans-72" x="255.029297"/>
     <use xlink:href="#DejaVuSans-61" x="296.142578"/>
     <use xlink:href="#DejaVuSans-74" x="357.421875"/>
     <use xlink:href="#DejaVuSans-69" x="396.630859"/>
     <use xlink:href="#DejaVuSans-6f" x="424.414062"/>
     <use xlink:href="#DejaVuSans-6e" x="485.595703"/>
     <use xlink:href="#DejaVuSans-20" x="548.974609"/>
     <use xlink:href="#DejaVuSans-5b" x="580.761719"/>
     <use xlink:href="#DejaVuSans-73" x="619.775391"/>
     <use xlink:href="#DejaVuSans-5d" x="671.875"/>
    </g>
   </g>
   <g id="Line3DCollection_9">
    <path d="M 402.530002 447.726472 
L 230.143233 440.855534 
L 191.337976 488.583692 
" style="fill: none; stroke: #b0b0b0; stroke-width: 0.8"/>
    <path d="M 403.140366 409.94709 
L 229.714641 403.67555 
L 190.598719 447.266574 
" style="fill: none; stroke: #b0b0b0; stroke-width: 0.8"/>
    <path d="M 403.758185 371.706284 
L 229.280902 366.049206 
L 189.849516 405.393579 
" style="fill: none; stroke: #b0b0b0; stroke-width: 0.8"/>
   </g>
   <g id="xtick_25">
    <g id="line2d_34">
     <path d="M 401.127464 447.67057 
L 405.336233 447.838322 
" style="fill: none; stroke: #000000; stroke-width: 0.8; stroke-linecap: square"/>
    </g>
    <g id="text_36">
     <!-- 150 -->
     <g transform="translate(403.783492 455.536916)scale(0.14 -0.14)">
      <use xlink:href="#DejaVuSans-31"/>
      <use xlink:href="#DejaVuSans-35" x="63.623047"/>
      <use xlink:href="#DejaVuSans-30" x="127.246094"/>
     </g>
    </g>
   </g>
   <g id="xtick_26">
    <g id="line2d_35">
     <path d="M 401.729232 409.89606 
L 405.963803 410.049193 
" style="fill: none; stroke: #000000; stroke-width: 0.8; stroke-linecap: square"/>
    </g>
    <g id="text_37">
     <!-- 200 -->
     <g transform="translate(404.477687 418.004029)scale(0.14 -0.14)">
      <use xlink:href="#DejaVuSans-32"/>
      <use xlink:href="#DejaVuSans-30" x="63.623047"/>
      <use xlink:href="#DejaVuSans-30" x="127.246094"/>
     </g>
    </g>
   </g>
   <g id="xtick_27">
    <g id="line2d_36">
     <path d="M 402.338348 371.660249 
L 406.599041 371.798393 
" style="fill: none; stroke: #000000; stroke-width: 0.8; stroke-linecap: square"/>
    </g>
    <g id="text_38">
     <!-- 250 -->
     <g transform="translate(405.180302 380.015946)scale(0.14 -0.14)">
      <use xlink:href="#DejaVuSans-32"/>
      <use xlink:href="#DejaVuSans-35" x="63.623047"/>
      <use xlink:href="#DejaVuSans-30" x="127.246094"/>
     </g>
    </g>
   </g>
  </g>
  <g id="axes_3">
   <g id="Poly3DCollection_3">
    <path d="M 239.030378 467.762449 
L 238.653279 430.591711 
L 268.648122 431.755643 
L 268.847172 469.029522 
z
" clip-path="url(#p4ce5557490)" style="fill: #003615"/>
    <path d="M 298.841117 470.304124 
L 298.819588 427.657684 
L 329.200312 428.820783 
L 329.013796 471.586321 
z
" clip-path="url(#p4ce5557490)" style="fill: #003615"/>
    <path d="M 233.006496 475.890358 
L 239.030378 467.762449 
L 268.847172 469.029522 
L 263.37332 477.20611 
z
" clip-path="url(#p4ce5557490)" style="fill: #00451b"/>
    <path d="M 233.006496 475.890358 
L 232.585408 438.058713 
L 238.653279 430.591711 
L 239.030378 467.762449 
z
" clip-path="url(#p4ce5557490)" style="fill: #00732d"/>
    <path d="M 263.37332 477.20611 
L 268.847172 469.029522 
L 268.648122 431.755643 
L 263.13693 439.267637 
z
" clip-path="url(#p4ce5557490)" style="fill: #003615"/>
    <path d="M 293.924012 478.52983 
L 298.841117 470.304124 
L 329.013796 471.586321 
L 324.660246 479.861588 
z
" clip-path="url(#p4ce5557490)" style="fill: #00451b"/>
    <path d="M 232.585408 438.058713 
L 263.13693 439.267637 
L 268.648122 431.755643 
L 238.653279 430.591711 
z
" clip-path="url(#p4ce5557490)" style="fill: #006427"/>
    <path d="M 359.366812 472.876181 
L 359.813014 424.683322 
L 390.587439 425.845455 
L 389.901786 474.173774 
z
" clip-path="url(#p4ce5557490)" style="fill: #003615"/>
    <path d="M 293.924012 478.52983 
L 293.867604 435.120166 
L 298.819588 427.657684 
L 298.841117 470.304124 
z
" clip-path="url(#p4ce5557490)" style="fill: #00732d"/>
    <path d="M 324.660246 479.861588 
L 329.013796 471.586321 
L 329.200312 428.820783 
L 324.819756 436.328541 
z
" clip-path="url(#p4ce5557490)" style="fill: #003615"/>
    <path d="M 355.583717 481.201459 
L 359.366812 472.876181 
L 389.901786 474.173774 
L 386.696143 482.549517 
z
" clip-path="url(#p4ce5557490)" style="fill: #00451b"/>
    <path d="M 233.006496 475.890358 
L 263.37332 477.20611 
L 263.13693 439.267637 
L 232.585408 438.058713 
z
" clip-path="url(#p4ce5557490)" style="fill: #00732d"/>
    <path d="M 293.867604 435.120166 
L 324.819756 436.328541 
L 329.200312 428.820783 
L 298.819588 427.657684 
z
" clip-path="url(#p4ce5557490)" style="fill: #006427"/>
    <path d="M 355.583717 481.201459 
L 356.008588 432.140439 
L 359.813014 424.683322 
L 359.366812 472.876181 
z
" clip-path="url(#p4ce5557490)" style="fill: #00732d"/>
    <path d="M 386.696143 482.549517 
L 389.901786 474.173774 
L 390.587439 425.845455 
L 387.369644 433.348132 
z
" clip-path="url(#p4ce5557490)" style="fill: #003615"/>
    <path d="M 293.924012 478.52983 
L 324.660246 479.861588 
L 324.819756 436.328541 
L 293.867604 435.120166 
z
" clip-path="url(#p4ce5557490)" style="fill: #00732d"/>
    <path d="M 356.008588 432.140439 
L 387.369644 433.348132 
L 390.587439 425.845455 
L 359.813014 424.683322 
z
" clip-path="url(#p4ce5557490)" style="fill: #006427"/>
    <path d="M 355.583717 481.201459 
L 386.696143 482.549517 
L 387.369644 433.348132 
L 356.008588 432.140439 
z
" clip-path="url(#p4ce5557490)" style="fill: #00732d"/>
    <path d="M 226.749279 484.333101 
L 226.073156 428.717226 
L 257.287504 429.924176 
L 257.686787 485.700392 
z
" clip-path="url(#p4ce5557490)" style="fill: #003615"/>
    <path d="M 288.815268 487.076123 
L 288.739492 451.454628 
L 320.24144 452.735955 
L 320.136495 488.460373 
z
" clip-path="url(#p4ce5557490)" style="fill: #003615"/>
    <path d="M 220.244904 493.10933 
L 226.749279 484.333101 
L 257.686787 485.700392 
L 251.774932 494.531249 
z
" clip-path="url(#p4ce5557490)" style="fill: #00451b"/>
    <path d="M 220.244904 493.10933 
L 219.495676 436.465433 
L 226.073156 428.717226 
L 226.749279 484.333101 
z
" clip-path="url(#p4ce5557490)" style="fill: #00732d"/>
    <path d="M 351.652265 489.853221 
L 351.940186 454.025286 
L 383.837581 455.322697 
L 383.364396 491.254747 
z
" clip-path="url(#p4ce5557490)" style="fill: #003615"/>
    <path d="M 251.774932 494.531249 
L 257.686787 485.700392 
L 257.287504 429.924176 
L 251.313297 437.721051 
z
" clip-path="url(#p4ce5557490)" style="fill: #003615"/>
    <path d="M 283.503459 495.962119 
L 288.815268 487.076123 
L 320.136495 488.460373 
L 315.432364 497.402026 
z
" clip-path="url(#p4ce5557490)" style="fill: #00451b"/>
    <path d="M 283.503459 495.962119 
L 283.394964 459.680717 
L 288.739492 451.454628 
L 288.815268 487.076123 
z
" clip-path="url(#p4ce5557490)" style="fill: #00732d"/>
    <path d="M 219.495676 436.465433 
L 251.313297 437.721051 
L 257.287504 429.924176 
L 226.073156 428.717226 
z
" clip-path="url(#p4ce5557490)" style="fill: #006427"/>
    <path d="M 315.432364 497.402026 
L 320.136495 488.460373 
L 320.24144 452.735955 
L 315.511691 461.013868 
z
" clip-path="url(#p4ce5557490)" style="fill: #003615"/>
    <path d="M 283.394964 459.680717 
L 315.511691 461.013868 
L 320.24144 452.735955 
L 288.739492 451.454628 
z
" clip-path="url(#p4ce5557490)" style="fill: #006427"/>
    <path d="M 347.563553 498.851056 
L 351.652265 489.853221 
L 383.364396 491.254747 
L 379.898954 500.309295 
z
" clip-path="url(#p4ce5557490)" style="fill: #00451b"/>
    <path d="M 347.563553 498.851056 
L 347.833094 462.355516 
L 351.940186 454.025286 
L 351.652265 489.853221 
z
" clip-path="url(#p4ce5557490)" style="fill: #00732d"/>
    <path d="M 220.244904 493.10933 
L 251.774932 494.531249 
L 251.313297 437.721051 
L 219.495676 436.465433 
z
" clip-path="url(#p4ce5557490)" style="fill: #00732d"/>
    <path d="M 379.898954 500.309295 
L 383.364396 491.254747 
L 383.837581 455.322697 
L 380.361136 463.705741 
z
" clip-path="url(#p4ce5557490)" style="fill: #003615"/>
    <path d="M 347.833094 462.355516 
L 380.361136 463.705741 
L 383.837581 455.322697 
L 351.940186 454.025286 
z
" clip-path="url(#p4ce5557490)" style="fill: #006427"/>
    <path d="M 283.503459 495.962119 
L 315.432364 497.402026 
L 315.511691 461.013868 
L 283.394964 459.680717 
z
" clip-path="url(#p4ce5557490)" style="fill: #00732d"/>
    <path d="M 347.563553 498.851056 
L 379.898954 500.309295 
L 380.361136 463.705741 
L 347.833094 462.355516 
z
" clip-path="url(#p4ce5557490)" style="fill: #00732d"/>
    <path d="M 213.478431 502.239203 
L 212.997447 468.705485 
L 245.316843 470.085504 
L 245.624092 503.71909 
z
" clip-path="url(#p4ce5557490)" style="fill: #003615"/>
    <path d="M 277.976232 505.208482 
L 277.882618 481.150336 
L 310.570368 482.577375 
L 310.536845 506.707472 
z
" clip-path="url(#p4ce5557490)" style="fill: #003615"/>
    <path d="M 206.433692 511.744535 
L 213.478431 502.239203 
L 245.624092 503.71909 
L 239.219478 513.286008 
z
" clip-path="url(#p4ce5557490)" style="fill: #00451b"/>
    <path d="M 206.433692 511.744535 
L 205.903681 477.5702 
L 212.997447 468.705485 
L 213.478431 502.239203 
z
" clip-path="url(#p4ce5557490)" style="fill: #00732d"/>
    <path d="M 239.219478 513.286008 
L 245.624092 503.71909 
L 245.316843 470.085504 
L 238.870207 479.007971 
z
" clip-path="url(#p4ce5557490)" style="fill: #003615"/>
    <path d="M 343.307954 508.216152 
L 343.497441 479.961439 
L 376.633401 481.394841 
L 376.291606 509.734617 
z
" clip-path="url(#p4ce5557490)" style="fill: #003615"/>
    <path d="M 205.903681 477.5702 
L 238.870207 479.007971 
L 245.316843 470.085504 
L 212.997447 468.705485 
z
" clip-path="url(#p4ce5557490)" style="fill: #006427"/>
    <path d="M 272.220212 514.837588 
L 277.976232 505.208482 
L 310.536845 506.707472 
L 305.438016 516.399373 
z
" clip-path="url(#p4ce5557490)" style="fill: #00451b"/>
    <path d="M 272.220212 514.837588 
L 272.10173 490.317875 
L 277.882618 481.150336 
L 277.976232 505.208482 
z
" clip-path="url(#p4ce5557490)" style="fill: #00732d"/>
    <path d="M 305.438016 516.399373 
L 310.536845 506.707472 
L 310.570368 482.577375 
L 305.451865 491.804937 
z
" clip-path="url(#p4ce5557490)" style="fill: #003615"/>
    <path d="M 272.10173 490.317875 
L 305.451865 491.804937 
L 310.570368 482.577375 
L 277.882618 481.150336 
z
" clip-path="url(#p4ce5557490)" style="fill: #006427"/>
    <path d="M 206.433692 511.744535 
L 239.219478 513.286008 
L 238.870207 479.007971 
L 205.903681 477.5702 
z
" clip-path="url(#p4ce5557490)" style="fill: #00732d"/>
    <path d="M 338.875037 517.971464 
L 343.307954 508.216152 
L 376.291606 509.734617 
L 372.533453 519.553965 
z
" clip-path="url(#p4ce5557490)" style="fill: #00451b"/>
    <path d="M 338.875037 517.971464 
L 339.047744 489.171006 
L 343.497441 479.961439 
L 343.307954 508.216152 
z
" clip-path="url(#p4ce5557490)" style="fill: #00732d"/>
    <path d="M 372.533453 519.553965 
L 376.291606 509.734617 
L 376.633401 481.394841 
L 372.86478 490.665143 
z
" clip-path="url(#p4ce5557490)" style="fill: #003615"/>
    <path d="M 339.047744 489.171006 
L 372.86478 490.665143 
L 376.633401 481.394841 
L 343.497441 479.961439 
z
" clip-path="url(#p4ce5557490)" style="fill: #006427"/>
    <path d="M 272.220212 514.837588 
L 305.438016 516.399373 
L 305.451865 491.804937 
L 272.10173 490.317875 
z
" clip-path="url(#p4ce5557490)" style="fill: #00732d"/>
    <path d="M 338.875037 517.971464 
L 372.533453 519.553965 
L 372.86478 490.665143 
L 339.047744 489.171006 
z
" clip-path="url(#p4ce5557490)" style="fill: #00732d"/>
   </g>
   <g id="text_39">
    <!-- Roles: 3 -->
    <g transform="translate(264.759563 318.288)scale(0.168 -0.168)">
     <use xlink:href="#DejaVuSans-52"/>
     <use xlink:href="#DejaVuSans-6f" x="64.982422"/>
     <use xlink:href="#DejaVuSans-6c" x="126.164062"/>
     <use xlink:href="#DejaVuSans-65" x="153.947266"/>
     <use xlink:href="#DejaVuSans-73" x="215.470703"/>
     <use xlink:href="#DejaVuSans-3a" x="267.570312"/>
     <use xlink:href="#DejaVuSans-20" x="301.261719"/>
     <use xlink:href="#DejaVuSans-33" x="333.048828"/>
    </g>
   </g>
  </g>
 </g>
 <defs>
  <clipPath id="p984d40c065">
   <rect x="-20.88" y="0" width="288" height="288"/>
  </clipPath>
  <clipPath id="p3dde99b01e">
   <rect x="329.04" y="0" width="288" height="288"/>
  </clipPath>
  <clipPath id="p4ce5557490">
   <rect x="154.08" y="288" width="288" height="288"/>
  </clipPath>
 </defs>
</svg>
