<?xml version="1.0" encoding="utf-8" standalone="no"?>
<!DOCTYPE svg PUBLIC "-//W3C//DTD SVG 1.1//EN"
  "http://www.w3.org/Graphics/SVG/1.1/DTD/svg11.dtd">
<svg xmlns:xlink="http://www.w3.org/1999/xlink" width="648pt" height="576pt" viewBox="0 0 648 576" xmlns="http://www.w3.org/2000/svg" version="1.1">
 <metadata>
  <rdf:RDF xmlns:dc="http://purl.org/dc/elements/1.1/" xmlns:cc="http://creativecommons.org/ns#" xmlns:rdf="http://www.w3.org/1999/02/22-rdf-syntax-ns#">
   <cc:Work>
    <dc:type rdf:resource="http://purl.org/dc/dcmitype/StillImage"/>
    <dc:date>2022-09-04T12:11:24.871157</dc:date>
    <dc:format>image/svg+xml</dc:format>
    <dc:creator>
     <cc:Agent>
      <dc:title>Matplotlib v3.5.3, https://matplotlib.org/</dc:title>
     </cc:Agent>
    </dc:creator>
   </cc:Work>
  </rdf:RDF>
 </metadata>
 <defs>
  <style type="text/css">*{stroke-linejoin: round; stroke-linecap: butt}</style>
 </defs>
 <g id="figure_1">
  <g id="patch_1">
   <path d="M 0 576 
L 648 576 
L 648 0 
L 0 0 
z
" style="fill: #ffffff"/>
  </g>
  <g id="patch_2">
   <path d="M -20.88 288 
L 267.12 288 
L 267.12 0 
L -20.88 0 
z
" style="fill: #ffffff"/>
  </g>
  <g id="pane3d_1">
   <g id="patch_3">
    <path d="M 16.895404 229.502734 
L 55.48358 178.910342 
L 54.019491 51.902074 
L 14.368247 88.259858 
" style="fill: #f2f2f2; opacity: 0.5; stroke: #f2f2f2; stroke-linejoin: miter"/>
   </g>
  </g>
  <g id="pane3d_2">
   <g id="patch_4">
    <path d="M 55.48358 178.910342 
L 227.142348 186.196718 
L 229.227592 57.127489 
L 54.019491 51.902074 
" style="fill: #e6e6e6; opacity: 0.5; stroke: #e6e6e6; stroke-linejoin: miter"/>
   </g>
  </g>
  <g id="pane3d_3">
   <g id="patch_5">
    <path d="M 16.895404 229.502734 
L 208.546471 238.636747 
L 227.142348 186.196718 
L 55.48358 178.910342 
" style="fill: #ececec; opacity: 0.5; stroke: #ececec; stroke-linejoin: miter"/>
   </g>
  </g>
  <g id="axis3d_1">
   <g id="line2d_1">
    <path d="M 16.895404 229.502734 
L 208.546471 238.636747 
" style="fill: none; stroke: #000000; stroke-width: 0.8; stroke-linecap: square"/>
   </g>
   <g id="text_1">
    <!-- Raster files -->
    <g transform="translate(65.848413 277.557892)rotate(-357.271371)scale(0.14 -0.14)">
     <defs>
      <path id="DejaVuSans-52" d="M 2841 2188 
Q 3044 2119 3236 1894 
Q 3428 1669 3622 1275 
L 4263 0 
L 3584 0 
L 2988 1197 
Q 2756 1666 2539 1819 
Q 2322 1972 1947 1972 
L 1259 1972 
L 1259 0 
L 628 0 
L 628 4666 
L 2053 4666 
Q 2853 4666 3247 4331 
Q 3641 3997 3641 3322 
Q 3641 2881 3436 2590 
Q 3231 2300 2841 2188 
z
M 1259 4147 
L 1259 2491 
L 2053 2491 
Q 2509 2491 2742 2702 
Q 2975 2913 2975 3322 
Q 2975 3731 2742 3939 
Q 2509 4147 2053 4147 
L 1259 4147 
z
" transform="scale(0.015625)"/>
      <path id="DejaVuSans-61" d="M 2194 1759 
Q 1497 1759 1228 1600 
Q 959 1441 959 1056 
Q 959 750 1161 570 
Q 1363 391 1709 391 
Q 2188 391 2477 730 
Q 2766 1069 2766 1631 
L 2766 1759 
L 2194 1759 
z
M 3341 1997 
L 3341 0 
L 2766 0 
L 2766 531 
Q 2569 213 2275 61 
Q 1981 -91 1556 -91 
Q 1019 -91 701 211 
Q 384 513 384 1019 
Q 384 1609 779 1909 
Q 1175 2209 1959 2209 
L 2766 2209 
L 2766 2266 
Q 2766 2663 2505 2880 
Q 2244 3097 1772 3097 
Q 1472 3097 1187 3025 
Q 903 2953 641 2809 
L 641 3341 
Q 956 3463 1253 3523 
Q 1550 3584 1831 3584 
Q 2591 3584 2966 3190 
Q 3341 2797 3341 1997 
z
" transform="scale(0.015625)"/>
      <path id="DejaVuSans-73" d="M 2834 3397 
L 2834 2853 
Q 2591 2978 2328 3040 
Q 2066 3103 1784 3103 
Q 1356 3103 1142 2972 
Q 928 2841 928 2578 
Q 928 2378 1081 2264 
Q 1234 2150 1697 2047 
L 1894 2003 
Q 2506 1872 2764 1633 
Q 3022 1394 3022 966 
Q 3022 478 2636 193 
Q 2250 -91 1575 -91 
Q 1294 -91 989 -36 
Q 684 19 347 128 
L 347 722 
Q 666 556 975 473 
Q 1284 391 1588 391 
Q 1994 391 2212 530 
Q 2431 669 2431 922 
Q 2431 1156 2273 1281 
Q 2116 1406 1581 1522 
L 1381 1569 
Q 847 1681 609 1914 
Q 372 2147 372 2553 
Q 372 3047 722 3315 
Q 1072 3584 1716 3584 
Q 2034 3584 2315 3537 
Q 2597 3491 2834 3397 
z
" transform="scale(0.015625)"/>
      <path id="DejaVuSans-74" d="M 1172 4494 
L 1172 3500 
L 2356 3500 
L 2356 3053 
L 1172 3053 
L 1172 1153 
Q 1172 725 1289 603 
Q 1406 481 1766 481 
L 2356 481 
L 2356 0 
L 1766 0 
Q 1100 0 847 248 
Q 594 497 594 1153 
L 594 3053 
L 172 3053 
L 172 3500 
L 594 3500 
L 594 4494 
L 1172 4494 
z
" transform="scale(0.015625)"/>
      <path id="DejaVuSans-65" d="M 3597 1894 
L 3597 1613 
L 953 1613 
Q 991 1019 1311 708 
Q 1631 397 2203 397 
Q 2534 397 2845 478 
Q 3156 559 3463 722 
L 3463 178 
Q 3153 47 2828 -22 
Q 2503 -91 2169 -91 
Q 1331 -91 842 396 
Q 353 884 353 1716 
Q 353 2575 817 3079 
Q 1281 3584 2069 3584 
Q 2775 3584 3186 3129 
Q 3597 2675 3597 1894 
z
M 3022 2063 
Q 3016 2534 2758 2815 
Q 2500 3097 2075 3097 
Q 1594 3097 1305 2825 
Q 1016 2553 972 2059 
L 3022 2063 
z
" transform="scale(0.015625)"/>
      <path id="DejaVuSans-72" d="M 2631 2963 
Q 2534 3019 2420 3045 
Q 2306 3072 2169 3072 
Q 1681 3072 1420 2755 
Q 1159 2438 1159 1844 
L 1159 0 
L 581 0 
L 581 3500 
L 1159 3500 
L 1159 2956 
Q 1341 3275 1631 3429 
Q 1922 3584 2338 3584 
Q 2397 3584 2469 3576 
Q 2541 3569 2628 3553 
L 2631 2963 
z
" transform="scale(0.015625)"/>
      <path id="DejaVuSans-20" transform="scale(0.015625)"/>
      <path id="DejaVuSans-66" d="M 2375 4863 
L 2375 4384 
L 1825 4384 
Q 1516 4384 1395 4259 
Q 1275 4134 1275 3809 
L 1275 3500 
L 2222 3500 
L 2222 3053 
L 1275 3053 
L 1275 0 
L 697 0 
L 697 3053 
L 147 3053 
L 147 3500 
L 697 3500 
L 697 3744 
Q 697 4328 969 4595 
Q 1241 4863 1831 4863 
L 2375 4863 
z
" transform="scale(0.015625)"/>
      <path id="DejaVuSans-69" d="M 603 3500 
L 1178 3500 
L 1178 0 
L 603 0 
L 603 3500 
z
M 603 4863 
L 1178 4863 
L 1178 4134 
L 603 4134 
L 603 4863 
z
" transform="scale(0.015625)"/>
      <path id="DejaVuSans-6c" d="M 603 4863 
L 1178 4863 
L 1178 0 
L 603 0 
L 603 4863 
z
" transform="scale(0.015625)"/>
     </defs>
     <use xlink:href="#DejaVuSans-52"/>
     <use xlink:href="#DejaVuSans-61" x="67.232422"/>
     <use xlink:href="#DejaVuSans-73" x="128.511719"/>
     <use xlink:href="#DejaVuSans-74" x="180.611328"/>
     <use xlink:href="#DejaVuSans-65" x="219.820312"/>
     <use xlink:href="#DejaVuSans-72" x="281.34375"/>
     <use xlink:href="#DejaVuSans-20" x="322.457031"/>
     <use xlink:href="#DejaVuSans-66" x="354.244141"/>
     <use xlink:href="#DejaVuSans-69" x="389.449219"/>
     <use xlink:href="#DejaVuSans-6c" x="417.232422"/>
     <use xlink:href="#DejaVuSans-65" x="445.015625"/>
     <use xlink:href="#DejaVuSans-73" x="506.539062"/>
    </g>
   </g>
   <g id="Line3DCollection_1">
    <path d="M 45.355083 230.859111 
L 81.018428 179.994216 
L 80.074564 52.679142 
" style="fill: none; stroke: #b0b0b0; stroke-width: 0.8"/>
    <path d="M 111.813176 234.026477 
L 140.586766 182.522705 
L 140.867025 54.492219 
" style="fill: none; stroke: #b0b0b0; stroke-width: 0.8"/>
    <path d="M 179.156219 237.236019 
L 200.863061 185.081245 
L 202.396999 56.327292 
" style="fill: none; stroke: #b0b0b0; stroke-width: 0.8"/>
   </g>
   <g id="xtick_1">
    <g id="line2d_2">
     <path d="M 45.673991 230.404268 
L 44.715445 231.771397 
" style="fill: none; stroke: #000000; stroke-width: 0.8; stroke-linecap: square"/>
    </g>
    <g id="text_2">
     <!-- 1 -->
     <g transform="translate(37.961361 256.584824)scale(0.14 -0.14)">
      <defs>
       <path id="DejaVuSans-31" d="M 794 531 
L 1825 531 
L 1825 4091 
L 703 3866 
L 703 4441 
L 1819 4666 
L 2450 4666 
L 2450 531 
L 3481 531 
L 3481 0 
L 794 0 
L 794 531 
z
" transform="scale(0.015625)"/>
      </defs>
      <use xlink:href="#DejaVuSans-31"/>
     </g>
    </g>
   </g>
   <g id="xtick_2">
    <g id="line2d_3">
     <path d="M 112.070654 233.5656 
L 111.29674 234.950882 
" style="fill: none; stroke: #000000; stroke-width: 0.8; stroke-linecap: square"/>
    </g>
    <g id="text_3">
     <!-- 2 -->
     <g transform="translate(104.897657 259.876453)scale(0.14 -0.14)">
      <defs>
       <path id="DejaVuSans-32" d="M 1228 531 
L 3431 531 
L 3431 0 
L 469 0 
L 469 531 
Q 828 903 1448 1529 
Q 2069 2156 2228 2338 
Q 2531 2678 2651 2914 
Q 2772 3150 2772 3378 
Q 2772 3750 2511 3984 
Q 2250 4219 1831 4219 
Q 1534 4219 1204 4116 
Q 875 4013 500 3803 
L 500 4441 
Q 881 4594 1212 4672 
Q 1544 4750 1819 4750 
Q 2544 4750 2975 4387 
Q 3406 4025 3406 3419 
Q 3406 3131 3298 2873 
Q 3191 2616 2906 2266 
Q 2828 2175 2409 1742 
Q 1991 1309 1228 531 
z
" transform="scale(0.015625)"/>
      </defs>
      <use xlink:href="#DejaVuSans-32"/>
     </g>
    </g>
   </g>
   <g id="xtick_3">
    <g id="line2d_4">
     <path d="M 179.350598 236.768988 
L 178.766337 238.172786 
" style="fill: none; stroke: #000000; stroke-width: 0.8; stroke-linecap: square"/>
    </g>
    <g id="text_4">
     <!-- 3 -->
     <g transform="translate(172.731992 263.212242)scale(0.14 -0.14)">
      <defs>
       <path id="DejaVuSans-33" d="M 2597 2516 
Q 3050 2419 3304 2112 
Q 3559 1806 3559 1356 
Q 3559 666 3084 287 
Q 2609 -91 1734 -91 
Q 1441 -91 1130 -33 
Q 819 25 488 141 
L 488 750 
Q 750 597 1062 519 
Q 1375 441 1716 441 
Q 2309 441 2620 675 
Q 2931 909 2931 1356 
Q 2931 1769 2642 2001 
Q 2353 2234 1838 2234 
L 1294 2234 
L 1294 2753 
L 1863 2753 
Q 2328 2753 2575 2939 
Q 2822 3125 2822 3475 
Q 2822 3834 2567 4026 
Q 2313 4219 1838 4219 
Q 1578 4219 1281 4162 
Q 984 4106 628 3988 
L 628 4550 
Q 988 4650 1302 4700 
Q 1616 4750 1894 4750 
Q 2613 4750 3031 4423 
Q 3450 4097 3450 3541 
Q 3450 3153 3228 2886 
Q 3006 2619 2597 2516 
z
" transform="scale(0.015625)"/>
      </defs>
      <use xlink:href="#DejaVuSans-33"/>
     </g>
    </g>
   </g>
  </g>
  <g id="axis3d_2">
   <g id="line2d_5">
    <path d="M 227.142348 186.196718 
L 208.546471 238.636747 
" style="fill: none; stroke: #000000; stroke-width: 0.8; stroke-linecap: square"/>
   </g>
   <g id="text_5">
    <!-- Vector files -->
    <g transform="translate(240.631093 273.311588)rotate(-70.474869)scale(0.14 -0.14)">
     <defs>
      <path id="DejaVuSans-56" d="M 1831 0 
L 50 4666 
L 709 4666 
L 2188 738 
L 3669 4666 
L 4325 4666 
L 2547 0 
L 1831 0 
z
" transform="scale(0.015625)"/>
      <path id="DejaVuSans-63" d="M 3122 3366 
L 3122 2828 
Q 2878 2963 2633 3030 
Q 2388 3097 2138 3097 
Q 1578 3097 1268 2742 
Q 959 2388 959 1747 
Q 959 1106 1268 751 
Q 1578 397 2138 397 
Q 2388 397 2633 464 
Q 2878 531 3122 666 
L 3122 134 
Q 2881 22 2623 -34 
Q 2366 -91 2075 -91 
Q 1284 -91 818 406 
Q 353 903 353 1747 
Q 353 2603 823 3093 
Q 1294 3584 2113 3584 
Q 2378 3584 2631 3529 
Q 2884 3475 3122 3366 
z
" transform="scale(0.015625)"/>
      <path id="DejaVuSans-6f" d="M 1959 3097 
Q 1497 3097 1228 2736 
Q 959 2375 959 1747 
Q 959 1119 1226 758 
Q 1494 397 1959 397 
Q 2419 397 2687 759 
Q 2956 1122 2956 1747 
Q 2956 2369 2687 2733 
Q 2419 3097 1959 3097 
z
M 1959 3584 
Q 2709 3584 3137 3096 
Q 3566 2609 3566 1747 
Q 3566 888 3137 398 
Q 2709 -91 1959 -91 
Q 1206 -91 779 398 
Q 353 888 353 1747 
Q 353 2609 779 3096 
Q 1206 3584 1959 3584 
z
" transform="scale(0.015625)"/>
     </defs>
     <use xlink:href="#DejaVuSans-56"/>
     <use xlink:href="#DejaVuSans-65" x="60.658203"/>
     <use xlink:href="#DejaVuSans-63" x="122.181641"/>
     <use xlink:href="#DejaVuSans-74" x="177.162109"/>
     <use xlink:href="#DejaVuSans-6f" x="216.371094"/>
     <use xlink:href="#DejaVuSans-72" x="277.552734"/>
     <use xlink:href="#DejaVuSans-20" x="318.666016"/>
     <use xlink:href="#DejaVuSans-66" x="350.453125"/>
     <use xlink:href="#DejaVuSans-69" x="385.658203"/>
     <use xlink:href="#DejaVuSans-6c" x="413.441406"/>
     <use xlink:href="#DejaVuSans-65" x="441.224609"/>
     <use xlink:href="#DejaVuSans-73" x="502.748047"/>
    </g>
   </g>
   <g id="Line3DCollection_2">
    <path d="M 20.956793 82.218561 
L 23.294335 221.11319 
L 211.635366 229.926121 
" style="fill: none; stroke: #b0b0b0; stroke-width: 0.8"/>
    <path d="M 35.326814 69.042124 
L 37.26871 202.791592 
L 218.373873 210.923657 
" style="fill: none; stroke: #b0b0b0; stroke-width: 0.8"/>
    <path d="M 48.594161 56.876772 
L 50.192628 185.847232 
L 224.597057 193.374392 
" style="fill: none; stroke: #b0b0b0; stroke-width: 0.8"/>
   </g>
   <g id="xtick_4">
    <g id="line2d_6">
     <path d="M 210.100564 229.854304 
L 214.706353 230.06982 
" style="fill: none; stroke: #000000; stroke-width: 0.8; stroke-linecap: square"/>
    </g>
    <g id="text_6">
     <!-- 1 -->
     <g transform="translate(221.742561 251.843447)scale(0.14 -0.14)">
      <use xlink:href="#DejaVuSans-31"/>
     </g>
    </g>
   </g>
   <g id="xtick_5">
    <g id="line2d_7">
     <path d="M 216.89911 210.857436 
L 221.324676 211.056155 
" style="fill: none; stroke: #000000; stroke-width: 0.8; stroke-linecap: square"/>
    </g>
    <g id="text_7">
     <!-- 2 -->
     <g transform="translate(227.900499 232.397793)scale(0.14 -0.14)">
      <use xlink:href="#DejaVuSans-32"/>
     </g>
    </g>
   </g>
   <g id="xtick_6">
    <g id="line2d_8">
     <path d="M 223.177814 193.313139 
L 227.436726 193.49695 
" style="fill: none; stroke: #000000; stroke-width: 0.8; stroke-linecap: square"/>
    </g>
    <g id="text_8">
     <!-- 3 -->
     <g transform="translate(233.587636 214.438845)scale(0.14 -0.14)">
      <use xlink:href="#DejaVuSans-33"/>
     </g>
    </g>
   </g>
  </g>
  <g id="axis3d_3">
   <g id="line2d_9">
    <path d="M 227.142348 186.196718 
L 229.227592 57.127489 
" style="fill: none; stroke: #000000; stroke-width: 0.8; stroke-linecap: square"/>
   </g>
   <g id="text_9">
    <!-- Duration [s] -->
    <g transform="translate(276.699222 156.150774)rotate(-89.074409)scale(0.14 -0.14)">
     <defs>
      <path id="DejaVuSans-44" d="M 1259 4147 
L 1259 519 
L 2022 519 
Q 2988 519 3436 956 
Q 3884 1394 3884 2338 
Q 3884 3275 3436 3711 
Q 2988 4147 2022 4147 
L 1259 4147 
z
M 628 4666 
L 1925 4666 
Q 3281 4666 3915 4102 
Q 4550 3538 4550 2338 
Q 4550 1131 3912 565 
Q 3275 0 1925 0 
L 628 0 
L 628 4666 
z
" transform="scale(0.015625)"/>
      <path id="DejaVuSans-75" d="M 544 1381 
L 544 3500 
L 1119 3500 
L 1119 1403 
Q 1119 906 1312 657 
Q 1506 409 1894 409 
Q 2359 409 2629 706 
Q 2900 1003 2900 1516 
L 2900 3500 
L 3475 3500 
L 3475 0 
L 2900 0 
L 2900 538 
Q 2691 219 2414 64 
Q 2138 -91 1772 -91 
Q 1169 -91 856 284 
Q 544 659 544 1381 
z
M 1991 3584 
L 1991 3584 
z
" transform="scale(0.015625)"/>
      <path id="DejaVuSans-6e" d="M 3513 2113 
L 3513 0 
L 2938 0 
L 2938 2094 
Q 2938 2591 2744 2837 
Q 2550 3084 2163 3084 
Q 1697 3084 1428 2787 
Q 1159 2491 1159 1978 
L 1159 0 
L 581 0 
L 581 3500 
L 1159 3500 
L 1159 2956 
Q 1366 3272 1645 3428 
Q 1925 3584 2291 3584 
Q 2894 3584 3203 3211 
Q 3513 2838 3513 2113 
z
" transform="scale(0.015625)"/>
      <path id="DejaVuSans-5b" d="M 550 4863 
L 1875 4863 
L 1875 4416 
L 1125 4416 
L 1125 -397 
L 1875 -397 
L 1875 -844 
L 550 -844 
L 550 4863 
z
" transform="scale(0.015625)"/>
      <path id="DejaVuSans-5d" d="M 1947 4863 
L 1947 -844 
L 622 -844 
L 622 -397 
L 1369 -397 
L 1369 4416 
L 622 4416 
L 622 4863 
L 1947 4863 
z
" transform="scale(0.015625)"/>
     </defs>
     <use xlink:href="#DejaVuSans-44"/>
     <use xlink:href="#DejaVuSans-75" x="77.001953"/>
     <use xlink:href="#DejaVuSans-72" x="140.380859"/>
     <use xlink:href="#DejaVuSans-61" x="181.494141"/>
     <use xlink:href="#DejaVuSans-74" x="242.773438"/>
     <use xlink:href="#DejaVuSans-69" x="281.982422"/>
     <use xlink:href="#DejaVuSans-6f" x="309.765625"/>
     <use xlink:href="#DejaVuSans-6e" x="370.947266"/>
     <use xlink:href="#DejaVuSans-20" x="434.326172"/>
     <use xlink:href="#DejaVuSans-5b" x="466.113281"/>
     <use xlink:href="#DejaVuSans-73" x="505.126953"/>
     <use xlink:href="#DejaVuSans-5d" x="557.226562"/>
    </g>
   </g>
   <g id="Line3DCollection_3">
    <path d="M 227.47312 165.7231 
L 55.251271 158.75772 
L 16.495234 207.137234 
" style="fill: none; stroke: #b0b0b0; stroke-width: 0.8"/>
    <path d="M 227.857136 141.953911 
L 54.981599 135.364001 
L 16.030319 181.153135 
" style="fill: none; stroke: #b0b0b0; stroke-width: 0.8"/>
    <path d="M 228.244098 118.00231 
L 54.709894 111.793795 
L 15.561477 154.949497 
" style="fill: none; stroke: #b0b0b0; stroke-width: 0.8"/>
    <path d="M 228.634041 93.866186 
L 54.43613 88.045097 
L 15.088656 128.523523 
" style="fill: none; stroke: #b0b0b0; stroke-width: 0.8"/>
    <path d="M 229.027001 69.5434 
L 54.160286 64.115872 
L 14.611806 101.872374 
" style="fill: none; stroke: #b0b0b0; stroke-width: 0.8"/>
   </g>
   <g id="xtick_7">
    <g id="line2d_10">
     <path d="M 226.071946 165.66643 
L 230.27662 165.836485 
" style="fill: none; stroke: #000000; stroke-width: 0.8; stroke-linecap: square"/>
    </g>
    <g id="text_10">
     <!-- 150 -->
     <g transform="translate(228.713298 173.494709)scale(0.14 -0.14)">
      <defs>
       <path id="DejaVuSans-35" d="M 691 4666 
L 3169 4666 
L 3169 4134 
L 1269 4134 
L 1269 2991 
Q 1406 3038 1543 3061 
Q 1681 3084 1819 3084 
Q 2600 3084 3056 2656 
Q 3513 2228 3513 1497 
Q 3513 744 3044 326 
Q 2575 -91 1722 -91 
Q 1428 -91 1123 -41 
Q 819 9 494 109 
L 494 744 
Q 775 591 1075 516 
Q 1375 441 1709 441 
Q 2250 441 2565 725 
Q 2881 1009 2881 1497 
Q 2881 1984 2565 2268 
Q 2250 2553 1709 2553 
Q 1456 2553 1204 2497 
Q 953 2441 691 2322 
L 691 4666 
z
" transform="scale(0.015625)"/>
       <path id="DejaVuSans-30" d="M 2034 4250 
Q 1547 4250 1301 3770 
Q 1056 3291 1056 2328 
Q 1056 1369 1301 889 
Q 1547 409 2034 409 
Q 2525 409 2770 889 
Q 3016 1369 3016 2328 
Q 3016 3291 2770 3770 
Q 2525 4250 2034 4250 
z
M 2034 4750 
Q 2819 4750 3233 4129 
Q 3647 3509 3647 2328 
Q 3647 1150 3233 529 
Q 2819 -91 2034 -91 
Q 1250 -91 836 529 
Q 422 1150 422 2328 
Q 422 3509 836 4129 
Q 1250 4750 2034 4750 
z
" transform="scale(0.015625)"/>
      </defs>
      <use xlink:href="#DejaVuSans-31"/>
      <use xlink:href="#DejaVuSans-35" x="63.623047"/>
      <use xlink:href="#DejaVuSans-30" x="127.246094"/>
     </g>
    </g>
   </g>
   <g id="xtick_8">
    <g id="line2d_11">
     <path d="M 226.450554 141.900293 
L 230.671461 142.061192 
" style="fill: none; stroke: #000000; stroke-width: 0.8; stroke-linecap: square"/>
    </g>
    <g id="text_11">
     <!-- 200 -->
     <g transform="translate(229.150069 149.879921)scale(0.14 -0.14)">
      <use xlink:href="#DejaVuSans-32"/>
      <use xlink:href="#DejaVuSans-30" x="63.623047"/>
      <use xlink:href="#DejaVuSans-30" x="127.246094"/>
     </g>
    </g>
   </g>
   <g id="xtick_9">
    <g id="line2d_12">
     <path d="M 226.832066 117.951792 
L 231.069332 118.103388 
" style="fill: none; stroke: #000000; stroke-width: 0.8; stroke-linecap: square"/>
    </g>
    <g id="text_12">
     <!-- 250 -->
     <g transform="translate(229.590169 126.085169)scale(0.14 -0.14)">
      <use xlink:href="#DejaVuSans-32"/>
      <use xlink:href="#DejaVuSans-35" x="63.623047"/>
      <use xlink:href="#DejaVuSans-30" x="127.246094"/>
     </g>
    </g>
   </g>
   <g id="xtick_10">
    <g id="line2d_13">
     <path d="M 227.216517 93.818817 
L 231.470269 93.960963 
" style="fill: none; stroke: #000000; stroke-width: 0.8; stroke-linecap: square"/>
    </g>
    <g id="text_13">
     <!-- 300 -->
     <g transform="translate(230.033636 102.108388)scale(0.14 -0.14)">
      <use xlink:href="#DejaVuSans-33"/>
      <use xlink:href="#DejaVuSans-30" x="63.623047"/>
      <use xlink:href="#DejaVuSans-30" x="127.246094"/>
     </g>
    </g>
   </g>
   <g id="xtick_11">
    <g id="line2d_14">
     <path d="M 227.603941 69.499231 
L 231.874308 69.631775 
" style="fill: none; stroke: #000000; stroke-width: 0.8; stroke-linecap: square"/>
    </g>
    <g id="text_14">
     <!-- 350 -->
     <g transform="translate(230.480508 77.947482)scale(0.14 -0.14)">
      <use xlink:href="#DejaVuSans-33"/>
      <use xlink:href="#DejaVuSans-35" x="63.623047"/>
      <use xlink:href="#DejaVuSans-30" x="127.246094"/>
     </g>
    </g>
   </g>
  </g>
  <g id="axes_1">
   <g id="Poly3DCollection_1">
    <path d="M 64.070378 179.762449 
L 63.832658 156.330304 
L 93.761693 157.532512 
L 93.887172 181.029522 
z
" clip-path="url(#p82533bc983)" style="fill: #003615"/>
    <path d="M 123.881117 182.304124 
L 123.873038 166.301261 
L 154.123785 167.538972 
L 154.053796 183.586321 
z
" clip-path="url(#p82533bc983)" style="fill: #003615"/>
    <path d="M 58.046496 187.890358 
L 64.070378 179.762449 
L 93.887172 181.029522 
L 88.41332 189.20611 
z
" clip-path="url(#p82533bc983)" style="fill: #00451b"/>
    <path d="M 58.046496 187.890358 
L 57.781056 164.042586 
L 63.832658 156.330304 
L 64.070378 179.762449 
z
" clip-path="url(#p82533bc983)" style="fill: #00732d"/>
    <path d="M 88.41332 189.20611 
L 93.887172 181.029522 
L 93.761693 157.532512 
L 88.264309 165.29116 
z
" clip-path="url(#p82533bc983)" style="fill: #003615"/>
    <path d="M 57.781056 164.042586 
L 88.264309 165.29116 
L 93.761693 157.532512 
L 63.832658 156.330304 
z
" clip-path="url(#p82533bc983)" style="fill: #006427"/>
    <path d="M 184.406812 184.876181 
L 184.639401 159.755025 
L 215.299187 160.982289 
L 214.941786 186.173774 
z
" clip-path="url(#p82533bc983)" style="fill: #003615"/>
    <path d="M 118.964012 190.52983 
L 118.942847 174.241908 
L 123.873038 166.301261 
L 123.881117 182.304124 
z
" clip-path="url(#p82533bc983)" style="fill: #00732d"/>
    <path d="M 118.964012 190.52983 
L 123.881117 182.304124 
L 154.053796 183.586321 
L 149.700246 191.861588 
z
" clip-path="url(#p82533bc983)" style="fill: #00451b"/>
    <path d="M 118.942847 174.241908 
L 149.760095 175.527589 
L 154.123785 167.538972 
L 123.873038 166.301261 
z
" clip-path="url(#p82533bc983)" style="fill: #006427"/>
    <path d="M 149.700246 191.861588 
L 154.053796 183.586321 
L 154.123785 167.538972 
L 149.760095 175.527589 
z
" clip-path="url(#p82533bc983)" style="fill: #003615"/>
    <path d="M 58.046496 187.890358 
L 88.41332 189.20611 
L 88.264309 165.29116 
L 57.781056 164.042586 
z
" clip-path="url(#p82533bc983)" style="fill: #00732d"/>
    <path d="M 180.623717 193.201459 
L 184.406812 184.876181 
L 214.941786 186.173774 
L 211.736143 194.549517 
z
" clip-path="url(#p82533bc983)" style="fill: #00451b"/>
    <path d="M 180.623717 193.201459 
L 180.845171 167.629594 
L 184.639401 159.755025 
L 184.406812 184.876181 
z
" clip-path="url(#p82533bc983)" style="fill: #00732d"/>
    <path d="M 211.736143 194.549517 
L 214.941786 186.173774 
L 215.299187 160.982289 
L 212.087185 168.904787 
z
" clip-path="url(#p82533bc983)" style="fill: #003615"/>
    <path d="M 180.845171 167.629594 
L 212.087185 168.904787 
L 215.299187 160.982289 
L 184.639401 159.755025 
z
" clip-path="url(#p82533bc983)" style="fill: #006427"/>
    <path d="M 118.964012 190.52983 
L 149.700246 191.861588 
L 149.760095 175.527589 
L 118.942847 174.241908 
z
" clip-path="url(#p82533bc983)" style="fill: #00732d"/>
    <path d="M 180.623717 193.201459 
L 211.736143 194.549517 
L 212.087185 168.904787 
L 180.845171 167.629594 
z
" clip-path="url(#p82533bc983)" style="fill: #00732d"/>
    <path d="M 51.789279 196.333101 
L 51.238438 151.022516 
L 82.40149 152.259409 
L 82.726787 197.700392 
z
" clip-path="url(#p82533bc983)" style="fill: #003615"/>
    <path d="M 113.855268 199.076123 
L 113.808538 177.108635 
L 145.241213 178.429564 
L 145.176495 200.460373 
z
" clip-path="url(#p82533bc983)" style="fill: #003615"/>
    <path d="M 45.284904 205.10933 
L 51.789279 196.333101 
L 82.726787 197.700392 
L 76.814932 206.531249 
z
" clip-path="url(#p82533bc983)" style="fill: #00451b"/>
    <path d="M 45.284904 205.10933 
L 44.674524 158.962727 
L 51.238438 151.022516 
L 51.789279 196.333101 
z
" clip-path="url(#p82533bc983)" style="fill: #00732d"/>
    <path d="M 76.814932 206.531249 
L 82.726787 197.700392 
L 82.40149 152.259409 
L 76.43885 160.249411 
z
" clip-path="url(#p82533bc983)" style="fill: #003615"/>
    <path d="M 176.692265 201.853221 
L 177.004819 162.960084 
L 208.918064 164.248527 
L 208.404396 203.254747 
z
" clip-path="url(#p82533bc983)" style="fill: #003615"/>
    <path d="M 108.543459 207.962119 
L 113.855268 199.076123 
L 145.176495 200.460373 
L 140.472364 209.402026 
z
" clip-path="url(#p82533bc983)" style="fill: #00451b"/>
    <path d="M 108.543459 207.962119 
L 108.476554 185.588654 
L 113.808538 177.108635 
L 113.855268 199.076123 
z
" clip-path="url(#p82533bc983)" style="fill: #00732d"/>
    <path d="M 44.674524 158.962727 
L 76.43885 160.249411 
L 82.40149 152.259409 
L 51.238438 151.022516 
z
" clip-path="url(#p82533bc983)" style="fill: #006427"/>
    <path d="M 140.472364 209.402026 
L 145.176495 200.460373 
L 145.241213 178.429564 
L 140.521282 186.962888 
z
" clip-path="url(#p82533bc983)" style="fill: #003615"/>
    <path d="M 108.476554 185.588654 
L 140.521282 186.962888 
L 145.241213 178.429564 
L 113.808538 177.108635 
z
" clip-path="url(#p82533bc983)" style="fill: #006427"/>
    <path d="M 172.603553 210.851056 
L 176.692265 201.853221 
L 208.404396 203.254747 
L 204.938954 212.309295 
z
" clip-path="url(#p82533bc983)" style="fill: #00451b"/>
    <path d="M 45.284904 205.10933 
L 76.814932 206.531249 
L 76.43885 160.249411 
L 44.674524 158.962727 
z
" clip-path="url(#p82533bc983)" style="fill: #00732d"/>
    <path d="M 172.603553 210.851056 
L 172.896157 171.232805 
L 177.004819 162.960084 
L 176.692265 201.853221 
z
" clip-path="url(#p82533bc983)" style="fill: #00732d"/>
    <path d="M 204.938954 212.309295 
L 208.404396 203.254747 
L 208.918064 164.248527 
L 205.440683 172.573724 
z
" clip-path="url(#p82533bc983)" style="fill: #003615"/>
    <path d="M 108.543459 207.962119 
L 140.472364 209.402026 
L 140.521282 186.962888 
L 108.476554 185.588654 
z
" clip-path="url(#p82533bc983)" style="fill: #00732d"/>
    <path d="M 172.896157 171.232805 
L 205.440683 172.573724 
L 208.918064 164.248527 
L 177.004819 162.960084 
z
" clip-path="url(#p82533bc983)" style="fill: #006427"/>
    <path d="M 172.603553 210.851056 
L 204.938954 212.309295 
L 205.440683 172.573724 
L 172.896157 171.232805 
z
" clip-path="url(#p82533bc983)" style="fill: #00732d"/>
    <path d="M 38.518431 214.239203 
L 38.330937 201.167302 
L 70.544324 202.608398 
L 70.664092 215.71909 
z
" clip-path="url(#p82533bc983)" style="fill: #003615"/>
    <path d="M 103.016232 217.208482 
L 102.961119 203.044931 
L 135.596581 204.501635 
L 135.576845 218.707472 
z
" clip-path="url(#p82533bc983)" style="fill: #003615"/>
    <path d="M 31.473692 223.744535 
L 31.2671 210.423822 
L 38.330937 201.167302 
L 38.518431 214.239203 
z
" clip-path="url(#p82533bc983)" style="fill: #00732d"/>
    <path d="M 31.473692 223.744535 
L 38.518431 214.239203 
L 70.664092 215.71909 
L 64.259478 225.286008 
z
" clip-path="url(#p82533bc983)" style="fill: #00451b"/>
    <path d="M 31.2671 210.423822 
L 64.123338 211.925021 
L 70.544324 202.608398 
L 38.330937 201.167302 
z
" clip-path="url(#p82533bc983)" style="fill: #006427"/>
    <path d="M 64.259478 225.286008 
L 70.664092 215.71909 
L 70.544324 202.608398 
L 64.123338 211.925021 
z
" clip-path="url(#p82533bc983)" style="fill: #003615"/>
    <path d="M 168.347954 220.216152 
L 168.591117 183.957629 
L 201.770225 185.366781 
L 201.331606 221.734617 
z
" clip-path="url(#p82533bc983)" style="fill: #003615"/>
    <path d="M 97.260212 226.837588 
L 97.190462 212.402782 
L 102.961119 203.044931 
L 103.016232 217.208482 
z
" clip-path="url(#p82533bc983)" style="fill: #00732d"/>
    <path d="M 97.260212 226.837588 
L 103.016232 217.208482 
L 135.576845 218.707472 
L 130.478016 228.399373 
z
" clip-path="url(#p82533bc983)" style="fill: #00451b"/>
    <path d="M 97.190462 212.402782 
L 130.486169 213.920655 
L 135.596581 204.501635 
L 102.961119 203.044931 
z
" clip-path="url(#p82533bc983)" style="fill: #006427"/>
    <path d="M 130.478016 228.399373 
L 135.576845 218.707472 
L 135.596581 204.501635 
L 130.486169 213.920655 
z
" clip-path="url(#p82533bc983)" style="fill: #003615"/>
    <path d="M 31.473692 223.744535 
L 64.259478 225.286008 
L 64.123338 211.925021 
L 31.2671 210.423822 
z
" clip-path="url(#p82533bc983)" style="fill: #00732d"/>
    <path d="M 163.915037 229.971464 
L 168.347954 220.216152 
L 201.331606 221.734617 
L 197.573453 231.553965 
z
" clip-path="url(#p82533bc983)" style="fill: #00451b"/>
    <path d="M 163.915037 229.971464 
L 164.136673 193.011601 
L 168.591117 183.957629 
L 168.347954 220.216152 
z
" clip-path="url(#p82533bc983)" style="fill: #00732d"/>
    <path d="M 197.573453 231.553965 
L 201.331606 221.734617 
L 201.770225 185.366781 
L 197.998649 194.48054 
z
" clip-path="url(#p82533bc983)" style="fill: #003615"/>
    <path d="M 97.260212 226.837588 
L 130.478016 228.399373 
L 130.486169 213.920655 
L 97.190462 212.402782 
z
" clip-path="url(#p82533bc983)" style="fill: #00732d"/>
    <path d="M 164.136673 193.011601 
L 197.998649 194.48054 
L 201.770225 185.366781 
L 168.591117 183.957629 
z
" clip-path="url(#p82533bc983)" style="fill: #006427"/>
    <path d="M 163.915037 229.971464 
L 197.573453 231.553965 
L 197.998649 194.48054 
L 164.136673 193.011601 
z
" clip-path="url(#p82533bc983)" style="fill: #00732d"/>
   </g>
   <g id="text_15">
    <!-- Roles: 1 -->
    <g transform="translate(89.799563 30.288)scale(0.168 -0.168)">
     <defs>
      <path id="DejaVuSans-3a" d="M 750 794 
L 1409 794 
L 1409 0 
L 750 0 
L 750 794 
z
M 750 3309 
L 1409 3309 
L 1409 2516 
L 750 2516 
L 750 3309 
z
" transform="scale(0.015625)"/>
     </defs>
     <use xlink:href="#DejaVuSans-52"/>
     <use xlink:href="#DejaVuSans-6f" x="64.982422"/>
     <use xlink:href="#DejaVuSans-6c" x="126.164062"/>
     <use xlink:href="#DejaVuSans-65" x="153.947266"/>
     <use xlink:href="#DejaVuSans-73" x="215.470703"/>
     <use xlink:href="#DejaVuSans-3a" x="267.570312"/>
     <use xlink:href="#DejaVuSans-20" x="301.261719"/>
     <use xlink:href="#DejaVuSans-31" x="333.048828"/>
    </g>
   </g>
  </g>
  <g id="patch_6">
   <path d="M 329.04 288 
L 617.04 288 
L 617.04 0 
L 329.04 0 
z
" style="fill: #ffffff"/>
  </g>
  <g id="pane3d_4">
   <g id="patch_7">
    <path d="M 366.815404 229.502734 
L 405.40358 178.910342 
L 403.939491 51.902074 
L 364.288247 88.259858 
" style="fill: #f2f2f2; opacity: 0.5; stroke: #f2f2f2; stroke-linejoin: miter"/>
   </g>
  </g>
  <g id="pane3d_5">
   <g id="patch_8">
    <path d="M 405.40358 178.910342 
L 577.062348 186.196718 
L 579.147592 57.127489 
L 403.939491 51.902074 
" style="fill: #e6e6e6; opacity: 0.5; stroke: #e6e6e6; stroke-linejoin: miter"/>
   </g>
  </g>
  <g id="pane3d_6">
   <g id="patch_9">
    <path d="M 366.815404 229.502734 
L 558.466471 238.636747 
L 577.062348 186.196718 
L 405.40358 178.910342 
" style="fill: #ececec; opacity: 0.5; stroke: #ececec; stroke-linejoin: miter"/>
   </g>
  </g>
  <g id="axis3d_4">
   <g id="line2d_15">
    <path d="M 366.815404 229.502734 
L 558.466471 238.636747 
" style="fill: none; stroke: #000000; stroke-width: 0.8; stroke-linecap: square"/>
   </g>
   <g id="text_16">
    <!-- Raster files -->
    <g transform="translate(415.768413 277.557892)rotate(-357.271371)scale(0.14 -0.14)">
     <use xlink:href="#DejaVuSans-52"/>
     <use xlink:href="#DejaVuSans-61" x="67.232422"/>
     <use xlink:href="#DejaVuSans-73" x="128.511719"/>
     <use xlink:href="#DejaVuSans-74" x="180.611328"/>
     <use xlink:href="#DejaVuSans-65" x="219.820312"/>
     <use xlink:href="#DejaVuSans-72" x="281.34375"/>
     <use xlink:href="#DejaVuSans-20" x="322.457031"/>
     <use xlink:href="#DejaVuSans-66" x="354.244141"/>
     <use xlink:href="#DejaVuSans-69" x="389.449219"/>
     <use xlink:href="#DejaVuSans-6c" x="417.232422"/>
     <use xlink:href="#DejaVuSans-65" x="445.015625"/>
     <use xlink:href="#DejaVuSans-73" x="506.539062"/>
    </g>
   </g>
   <g id="Line3DCollection_4">
    <path d="M 395.275083 230.859111 
L 430.938428 179.994216 
L 429.994564 52.679142 
" style="fill: none; stroke: #b0b0b0; stroke-width: 0.8"/>
    <path d="M 461.733176 234.026477 
L 490.506766 182.522705 
L 490.787025 54.492219 
" style="fill: none; stroke: #b0b0b0; stroke-width: 0.8"/>
    <path d="M 529.076219 237.236019 
L 550.783061 185.081245 
L 552.316999 56.327292 
" style="fill: none; stroke: #b0b0b0; stroke-width: 0.8"/>
   </g>
   <g id="xtick_12">
    <g id="line2d_16">
     <path d="M 395.593991 230.404268 
L 394.635445 231.771397 
" style="fill: none; stroke: #000000; stroke-width: 0.8; stroke-linecap: square"/>
    </g>
    <g id="text_17">
     <!-- 1 -->
     <g transform="translate(387.881361 256.584824)scale(0.14 -0.14)">
      <use xlink:href="#DejaVuSans-31"/>
     </g>
    </g>
   </g>
   <g id="xtick_13">
    <g id="line2d_17">
     <path d="M 461.990654 233.5656 
L 461.21674 234.950882 
" style="fill: none; stroke: #000000; stroke-width: 0.8; stroke-linecap: square"/>
    </g>
    <g id="text_18">
     <!-- 2 -->
     <g transform="translate(454.817657 259.876453)scale(0.14 -0.14)">
      <use xlink:href="#DejaVuSans-32"/>
     </g>
    </g>
   </g>
   <g id="xtick_14">
    <g id="line2d_18">
     <path d="M 529.270598 236.768988 
L 528.686337 238.172786 
" style="fill: none; stroke: #000000; stroke-width: 0.8; stroke-linecap: square"/>
    </g>
    <g id="text_19">
     <!-- 3 -->
     <g transform="translate(522.651992 263.212242)scale(0.14 -0.14)">
      <use xlink:href="#DejaVuSans-33"/>
     </g>
    </g>
   </g>
  </g>
  <g id="axis3d_5">
   <g id="line2d_19">
    <path d="M 577.062348 186.196718 
L 558.466471 238.636747 
" style="fill: none; stroke: #000000; stroke-width: 0.8; stroke-linecap: square"/>
   </g>
   <g id="text_20">
    <!-- Vector files -->
    <g transform="translate(590.551093 273.311588)rotate(-70.474869)scale(0.14 -0.14)">
     <use xlink:href="#DejaVuSans-56"/>
     <use xlink:href="#DejaVuSans-65" x="60.658203"/>
     <use xlink:href="#DejaVuSans-63" x="122.181641"/>
     <use xlink:href="#DejaVuSans-74" x="177.162109"/>
     <use xlink:href="#DejaVuSans-6f" x="216.371094"/>
     <use xlink:href="#DejaVuSans-72" x="277.552734"/>
     <use xlink:href="#DejaVuSans-20" x="318.666016"/>
     <use xlink:href="#DejaVuSans-66" x="350.453125"/>
     <use xlink:href="#DejaVuSans-69" x="385.658203"/>
     <use xlink:href="#DejaVuSans-6c" x="413.441406"/>
     <use xlink:href="#DejaVuSans-65" x="441.224609"/>
     <use xlink:href="#DejaVuSans-73" x="502.748047"/>
    </g>
   </g>
   <g id="Line3DCollection_5">
    <path d="M 370.876793 82.218561 
L 373.214335 221.11319 
L 561.555366 229.926121 
" style="fill: none; stroke: #b0b0b0; stroke-width: 0.8"/>
    <path d="M 385.246814 69.042124 
L 387.18871 202.791592 
L 568.293873 210.923657 
" style="fill: none; stroke: #b0b0b0; stroke-width: 0.8"/>
    <path d="M 398.514161 56.876772 
L 400.112628 185.847232 
L 574.517057 193.374392 
" style="fill: none; stroke: #b0b0b0; stroke-width: 0.8"/>
   </g>
   <g id="xtick_15">
    <g id="line2d_20">
     <path d="M 560.020564 229.854304 
L 564.626353 230.06982 
" style="fill: none; stroke: #000000; stroke-width: 0.8; stroke-linecap: square"/>
    </g>
    <g id="text_21">
     <!-- 1 -->
     <g transform="translate(571.662561 251.843447)scale(0.14 -0.14)">
      <use xlink:href="#DejaVuSans-31"/>
     </g>
    </g>
   </g>
   <g id="xtick_16">
    <g id="line2d_21">
     <path d="M 566.81911 210.857436 
L 571.244676 211.056155 
" style="fill: none; stroke: #000000; stroke-width: 0.8; stroke-linecap: square"/>
    </g>
    <g id="text_22">
     <!-- 2 -->
     <g transform="translate(577.820499 232.397793)scale(0.14 -0.14)">
      <use xlink:href="#DejaVuSans-32"/>
     </g>
    </g>
   </g>
   <g id="xtick_17">
    <g id="line2d_22">
     <path d="M 573.097814 193.313139 
L 577.356726 193.49695 
" style="fill: none; stroke: #000000; stroke-width: 0.8; stroke-linecap: square"/>
    </g>
    <g id="text_23">
     <!-- 3 -->
     <g transform="translate(583.507636 214.438845)scale(0.14 -0.14)">
      <use xlink:href="#DejaVuSans-33"/>
     </g>
    </g>
   </g>
  </g>
  <g id="axis3d_6">
   <g id="line2d_23">
    <path d="M 577.062348 186.196718 
L 579.147592 57.127489 
" style="fill: none; stroke: #000000; stroke-width: 0.8; stroke-linecap: square"/>
   </g>
   <g id="text_24">
    <!-- Duration [s] -->
    <g transform="translate(626.619222 156.150774)rotate(-89.074409)scale(0.14 -0.14)">
     <use xlink:href="#DejaVuSans-44"/>
     <use xlink:href="#DejaVuSans-75" x="77.001953"/>
     <use xlink:href="#DejaVuSans-72" x="140.380859"/>
     <use xlink:href="#DejaVuSans-61" x="181.494141"/>
     <use xlink:href="#DejaVuSans-74" x="242.773438"/>
     <use xlink:href="#DejaVuSans-69" x="281.982422"/>
     <use xlink:href="#DejaVuSans-6f" x="309.765625"/>
     <use xlink:href="#DejaVuSans-6e" x="370.947266"/>
     <use xlink:href="#DejaVuSans-20" x="434.326172"/>
     <use xlink:href="#DejaVuSans-5b" x="466.113281"/>
     <use xlink:href="#DejaVuSans-73" x="505.126953"/>
     <use xlink:href="#DejaVuSans-5d" x="557.226562"/>
    </g>
   </g>
   <g id="Line3DCollection_6">
    <path d="M 577.39312 165.7231 
L 405.171271 158.75772 
L 366.415234 207.137234 
" style="fill: none; stroke: #b0b0b0; stroke-width: 0.8"/>
    <path d="M 577.777136 141.953911 
L 404.901599 135.364001 
L 365.950319 181.153135 
" style="fill: none; stroke: #b0b0b0; stroke-width: 0.8"/>
    <path d="M 578.164098 118.00231 
L 404.629894 111.793795 
L 365.481477 154.949497 
" style="fill: none; stroke: #b0b0b0; stroke-width: 0.8"/>
    <path d="M 578.554041 93.866186 
L 404.35613 88.045097 
L 365.008656 128.523523 
" style="fill: none; stroke: #b0b0b0; stroke-width: 0.8"/>
    <path d="M 578.947001 69.5434 
L 404.080286 64.115872 
L 364.531806 101.872374 
" style="fill: none; stroke: #b0b0b0; stroke-width: 0.8"/>
   </g>
   <g id="xtick_18">
    <g id="line2d_24">
     <path d="M 575.991946 165.66643 
L 580.19662 165.836485 
" style="fill: none; stroke: #000000; stroke-width: 0.8; stroke-linecap: square"/>
    </g>
    <g id="text_25">
     <!-- 150 -->
     <g transform="translate(578.633298 173.494709)scale(0.14 -0.14)">
      <use xlink:href="#DejaVuSans-31"/>
      <use xlink:href="#DejaVuSans-35" x="63.623047"/>
      <use xlink:href="#DejaVuSans-30" x="127.246094"/>
     </g>
    </g>
   </g>
   <g id="xtick_19">
    <g id="line2d_25">
     <path d="M 576.370554 141.900293 
L 580.591461 142.061192 
" style="fill: none; stroke: #000000; stroke-width: 0.8; stroke-linecap: square"/>
    </g>
    <g id="text_26">
     <!-- 200 -->
     <g transform="translate(579.070069 149.879921)scale(0.14 -0.14)">
      <use xlink:href="#DejaVuSans-32"/>
      <use xlink:href="#DejaVuSans-30" x="63.623047"/>
      <use xlink:href="#DejaVuSans-30" x="127.246094"/>
     </g>
    </g>
   </g>
   <g id="xtick_20">
    <g id="line2d_26">
     <path d="M 576.752066 117.951792 
L 580.989332 118.103388 
" style="fill: none; stroke: #000000; stroke-width: 0.8; stroke-linecap: square"/>
    </g>
    <g id="text_27">
     <!-- 250 -->
     <g transform="translate(579.510169 126.085169)scale(0.14 -0.14)">
      <use xlink:href="#DejaVuSans-32"/>
      <use xlink:href="#DejaVuSans-35" x="63.623047"/>
      <use xlink:href="#DejaVuSans-30" x="127.246094"/>
     </g>
    </g>
   </g>
   <g id="xtick_21">
    <g id="line2d_27">
     <path d="M 577.136517 93.818817 
L 581.390269 93.960963 
" style="fill: none; stroke: #000000; stroke-width: 0.8; stroke-linecap: square"/>
    </g>
    <g id="text_28">
     <!-- 300 -->
     <g transform="translate(579.953636 102.108388)scale(0.14 -0.14)">
      <use xlink:href="#DejaVuSans-33"/>
      <use xlink:href="#DejaVuSans-30" x="63.623047"/>
      <use xlink:href="#DejaVuSans-30" x="127.246094"/>
     </g>
    </g>
   </g>
   <g id="xtick_22">
    <g id="line2d_28">
     <path d="M 577.523941 69.499231 
L 581.794308 69.631775 
" style="fill: none; stroke: #000000; stroke-width: 0.8; stroke-linecap: square"/>
    </g>
    <g id="text_29">
     <!-- 350 -->
     <g transform="translate(580.400508 77.947482)scale(0.14 -0.14)">
      <use xlink:href="#DejaVuSans-33"/>
      <use xlink:href="#DejaVuSans-35" x="63.623047"/>
      <use xlink:href="#DejaVuSans-30" x="127.246094"/>
     </g>
    </g>
   </g>
  </g>
  <g id="axes_2">
   <g id="Poly3DCollection_2">
    <path d="M 413.990378 179.762449 
L 413.781279 159.151503 
L 443.696801 160.361548 
L 443.807172 181.029522 
z
" clip-path="url(#pa2c9ad9fec)" style="fill: #003615"/>
    <path d="M 473.801117 182.304124 
L 473.784439 149.266787 
L 504.118286 150.456874 
L 503.973796 183.586321 
z
" clip-path="url(#pa2c9ad9fec)" style="fill: #003615"/>
    <path d="M 407.966496 187.890358 
L 413.990378 179.762449 
L 443.807172 181.029522 
L 438.33332 189.20611 
z
" clip-path="url(#pa2c9ad9fec)" style="fill: #00451b"/>
    <path d="M 407.966496 187.890358 
L 407.733017 166.914007 
L 413.781279 159.151503 
L 413.990378 179.762449 
z
" clip-path="url(#pa2c9ad9fec)" style="fill: #00732d"/>
    <path d="M 438.33332 189.20611 
L 443.807172 181.029522 
L 443.696801 160.361548 
L 438.202251 168.170699 
z
" clip-path="url(#pa2c9ad9fec)" style="fill: #003615"/>
    <path d="M 407.733017 166.914007 
L 438.202251 168.170699 
L 443.696801 160.361548 
L 413.781279 159.151503 
z
" clip-path="url(#pa2c9ad9fec)" style="fill: #006427"/>
    <path d="M 534.326812 184.876181 
L 534.515372 164.510438 
L 565.151531 165.751062 
L 564.861786 186.173774 
z
" clip-path="url(#pa2c9ad9fec)" style="fill: #003615"/>
    <path d="M 468.884012 190.52983 
L 473.801117 182.304124 
L 503.973796 183.586321 
L 499.620246 191.861588 
z
" clip-path="url(#pa2c9ad9fec)" style="fill: #00451b"/>
    <path d="M 468.884012 190.52983 
L 468.840315 156.902235 
L 473.784439 149.266787 
L 473.801117 182.304124 
z
" clip-path="url(#pa2c9ad9fec)" style="fill: #00732d"/>
    <path d="M 499.620246 191.861588 
L 503.973796 183.586321 
L 504.118286 150.456874 
L 499.743811 158.138576 
z
" clip-path="url(#pa2c9ad9fec)" style="fill: #003615"/>
    <path d="M 407.966496 187.890358 
L 438.33332 189.20611 
L 438.202251 168.170699 
L 407.733017 166.914007 
z
" clip-path="url(#pa2c9ad9fec)" style="fill: #00732d"/>
    <path d="M 468.840315 156.902235 
L 499.743811 158.138576 
L 504.118286 150.456874 
L 473.784439 149.266787 
z
" clip-path="url(#pa2c9ad9fec)" style="fill: #006427"/>
    <path d="M 530.543717 193.201459 
L 534.326812 184.876181 
L 564.861786 186.173774 
L 561.656143 194.549517 
z
" clip-path="url(#pa2c9ad9fec)" style="fill: #00451b"/>
    <path d="M 530.543717 193.201459 
L 530.723247 172.470631 
L 534.515372 164.510438 
L 534.326812 184.876181 
z
" clip-path="url(#pa2c9ad9fec)" style="fill: #00732d"/>
    <path d="M 561.656143 194.549517 
L 564.861786 186.173774 
L 565.151531 165.751062 
L 561.940728 173.759668 
z
" clip-path="url(#pa2c9ad9fec)" style="fill: #003615"/>
    <path d="M 530.723247 172.470631 
L 561.940728 173.759668 
L 565.151531 165.751062 
L 534.515372 164.510438 
z
" clip-path="url(#pa2c9ad9fec)" style="fill: #006427"/>
    <path d="M 468.884012 190.52983 
L 499.620246 191.861588 
L 499.743811 158.138576 
L 468.840315 156.902235 
z
" clip-path="url(#pa2c9ad9fec)" style="fill: #00732d"/>
    <path d="M 530.543717 193.201459 
L 561.656143 194.549517 
L 561.940728 173.759668 
L 530.723247 172.470631 
z
" clip-path="url(#pa2c9ad9fec)" style="fill: #00732d"/>
    <path d="M 401.709279 196.333101 
L 401.229967 156.906297 
L 432.363732 158.160238 
L 432.646787 197.700392 
z
" clip-path="url(#pa2c9ad9fec)" style="fill: #003615"/>
    <path d="M 463.775268 199.076123 
L 463.718108 172.205763 
L 495.175658 173.512493 
L 495.096495 200.460373 
z
" clip-path="url(#pa2c9ad9fec)" style="fill: #003615"/>
    <path d="M 395.204904 205.10933 
L 401.709279 196.333101 
L 432.646787 197.700392 
L 426.734932 206.531249 
z
" clip-path="url(#pa2c9ad9fec)" style="fill: #00451b"/>
    <path d="M 395.204904 205.10933 
L 394.673795 164.955823 
L 401.229967 156.906297 
L 401.709279 196.333101 
z
" clip-path="url(#pa2c9ad9fec)" style="fill: #00732d"/>
    <path d="M 526.612265 201.853221 
L 526.754208 184.19025 
L 558.557671 185.540611 
L 558.324396 203.254747 
z
" clip-path="url(#pa2c9ad9fec)" style="fill: #003615"/>
    <path d="M 426.734932 206.531249 
L 432.646787 197.700392 
L 432.363732 158.160238 
L 426.407693 166.260192 
z
" clip-path="url(#pa2c9ad9fec)" style="fill: #003615"/>
    <path d="M 458.463459 207.962119 
L 463.775268 199.076123 
L 495.096495 200.460373 
L 490.392364 209.402026 
z
" clip-path="url(#pa2c9ad9fec)" style="fill: #00451b"/>
    <path d="M 394.673795 164.955823 
L 426.407693 166.260192 
L 432.363732 158.160238 
L 401.229967 156.906297 
z
" clip-path="url(#pa2c9ad9fec)" style="fill: #006427"/>
    <path d="M 458.463459 207.962119 
L 458.38162 180.594741 
L 463.718108 172.205763 
L 463.775268 199.076123 
z
" clip-path="url(#pa2c9ad9fec)" style="fill: #00732d"/>
    <path d="M 490.392364 209.402026 
L 495.096495 200.460373 
L 495.175658 173.512493 
L 490.452201 181.954246 
z
" clip-path="url(#pa2c9ad9fec)" style="fill: #003615"/>
    <path d="M 458.38162 180.594741 
L 490.452201 181.954246 
L 495.175658 173.512493 
L 463.718108 172.205763 
z
" clip-path="url(#pa2c9ad9fec)" style="fill: #006427"/>
    <path d="M 522.523553 210.851056 
L 522.656428 192.860017 
L 526.754208 184.19025 
L 526.612265 201.853221 
z
" clip-path="url(#pa2c9ad9fec)" style="fill: #00732d"/>
    <path d="M 522.523553 210.851056 
L 526.612265 201.853221 
L 558.324396 203.254747 
L 554.858954 212.309295 
z
" clip-path="url(#pa2c9ad9fec)" style="fill: #00451b"/>
    <path d="M 395.204904 205.10933 
L 426.734932 206.531249 
L 426.407693 166.260192 
L 394.673795 164.955823 
z
" clip-path="url(#pa2c9ad9fec)" style="fill: #00732d"/>
    <path d="M 522.656428 192.860017 
L 555.086792 194.265181 
L 558.557671 185.540611 
L 526.754208 184.19025 
z
" clip-path="url(#pa2c9ad9fec)" style="fill: #006427"/>
    <path d="M 554.858954 212.309295 
L 558.324396 203.254747 
L 558.557671 185.540611 
L 555.086792 194.265181 
z
" clip-path="url(#pa2c9ad9fec)" style="fill: #003615"/>
    <path d="M 458.463459 207.962119 
L 490.392364 209.402026 
L 490.452201 181.954246 
L 458.38162 180.594741 
z
" clip-path="url(#pa2c9ad9fec)" style="fill: #00732d"/>
    <path d="M 522.523553 210.851056 
L 554.858954 212.309295 
L 555.086792 194.265181 
L 522.656428 192.860017 
z
" clip-path="url(#pa2c9ad9fec)" style="fill: #00732d"/>
    <path d="M 388.438431 214.239203 
L 388.040869 186.521603 
L 420.330133 187.919027 
L 420.584092 215.71909 
z
" clip-path="url(#pa2c9ad9fec)" style="fill: #003615"/>
    <path d="M 452.936232 217.208482 
L 452.792013 180.145272 
L 485.548489 181.533164 
L 485.496845 218.707472 
z
" clip-path="url(#pa2c9ad9fec)" style="fill: #003615"/>
    <path d="M 381.393692 223.744535 
L 388.438431 214.239203 
L 420.584092 215.71909 
L 414.179478 225.286008 
z
" clip-path="url(#pa2c9ad9fec)" style="fill: #00451b"/>
    <path d="M 381.393692 223.744535 
L 380.955615 195.497975 
L 388.040869 186.521603 
L 388.438431 214.239203 
z
" clip-path="url(#pa2c9ad9fec)" style="fill: #00732d"/>
    <path d="M 414.179478 225.286008 
L 420.584092 215.71909 
L 420.330133 187.919027 
L 413.890791 196.953823 
z
" clip-path="url(#pa2c9ad9fec)" style="fill: #003615"/>
    <path d="M 380.955615 195.497975 
L 413.890791 196.953823 
L 420.330133 187.919027 
L 388.040869 186.521603 
z
" clip-path="url(#pa2c9ad9fec)" style="fill: #006427"/>
    <path d="M 518.267954 220.216152 
L 518.538695 179.845402 
L 551.739971 181.242069 
L 551.251606 221.734617 
z
" clip-path="url(#pa2c9ad9fec)" style="fill: #003615"/>
    <path d="M 447.180212 226.837588 
L 452.936232 217.208482 
L 485.496845 218.707472 
L 480.398016 228.399373 
z
" clip-path="url(#pa2c9ad9fec)" style="fill: #00451b"/>
    <path d="M 447.180212 226.837588 
L 446.997675 189.061654 
L 452.792013 180.145272 
L 452.936232 217.208482 
z
" clip-path="url(#pa2c9ad9fec)" style="fill: #00732d"/>
    <path d="M 480.398016 228.399373 
L 485.496845 218.707472 
L 485.548489 181.533164 
L 480.419352 190.508049 
z
" clip-path="url(#pa2c9ad9fec)" style="fill: #003615"/>
    <path d="M 381.393692 223.744535 
L 414.179478 225.286008 
L 413.890791 196.953823 
L 380.955615 195.497975 
z
" clip-path="url(#pa2c9ad9fec)" style="fill: #00732d"/>
    <path d="M 446.997675 189.061654 
L 480.419352 190.508049 
L 485.548489 181.533164 
L 452.792013 180.145272 
z
" clip-path="url(#pa2c9ad9fec)" style="fill: #006427"/>
    <path d="M 513.835037 229.971464 
L 518.267954 220.216152 
L 551.251606 221.734617 
L 547.493453 231.553965 
z
" clip-path="url(#pa2c9ad9fec)" style="fill: #00451b"/>
    <path d="M 513.835037 229.971464 
L 514.081813 188.819261 
L 518.538695 179.845402 
L 518.267954 220.216152 
z
" clip-path="url(#pa2c9ad9fec)" style="fill: #00732d"/>
    <path d="M 547.493453 231.553965 
L 551.251606 221.734617 
L 551.739971 181.242069 
L 547.96688 190.275226 
z
" clip-path="url(#pa2c9ad9fec)" style="fill: #003615"/>
    <path d="M 514.081813 188.819261 
L 547.96688 190.275226 
L 551.739971 181.242069 
L 518.538695 179.845402 
z
" clip-path="url(#pa2c9ad9fec)" style="fill: #006427"/>
    <path d="M 447.180212 226.837588 
L 480.398016 228.399373 
L 480.419352 190.508049 
L 446.997675 189.061654 
z
" clip-path="url(#pa2c9ad9fec)" style="fill: #00732d"/>
    <path d="M 513.835037 229.971464 
L 547.493453 231.553965 
L 547.96688 190.275226 
L 514.081813 188.819261 
z
" clip-path="url(#pa2c9ad9fec)" style="fill: #00732d"/>
   </g>
   <g id="text_30">
    <!-- Roles: 2 -->
    <g transform="translate(439.719563 30.288)scale(0.168 -0.168)">
     <use xlink:href="#DejaVuSans-52"/>
     <use xlink:href="#DejaVuSans-6f" x="64.982422"/>
     <use xlink:href="#DejaVuSans-6c" x="126.164062"/>
     <use xlink:href="#DejaVuSans-65" x="153.947266"/>
     <use xlink:href="#DejaVuSans-73" x="215.470703"/>
     <use xlink:href="#DejaVuSans-3a" x="267.570312"/>
     <use xlink:href="#DejaVuSans-20" x="301.261719"/>
     <use xlink:href="#DejaVuSans-32" x="333.048828"/>
    </g>
   </g>
  </g>
  <g id="patch_10">
   <path d="M 154.08 576 
L 442.08 576 
L 442.08 288 
L 154.08 288 
z
" style="fill: #ffffff"/>
  </g>
  <g id="pane3d_7">
   <g id="patch_11">
    <path d="M 191.855404 517.502734 
L 230.44358 466.910342 
L 228.979491 339.902074 
L 189.328247 376.259858 
" style="fill: #f2f2f2; opacity: 0.5; stroke: #f2f2f2; stroke-linejoin: miter"/>
   </g>
  </g>
  <g id="pane3d_8">
   <g id="patch_12">
    <path d="M 230.44358 466.910342 
L 402.102348 474.196718 
L 404.187592 345.127489 
L 228.979491 339.902074 
" style="fill: #e6e6e6; opacity: 0.5; stroke: #e6e6e6; stroke-linejoin: miter"/>
   </g>
  </g>
  <g id="pane3d_9">
   <g id="patch_13">
    <path d="M 191.855404 517.502734 
L 383.506471 526.636747 
L 402.102348 474.196718 
L 230.44358 466.910342 
" style="fill: #ececec; opacity: 0.5; stroke: #ececec; stroke-linejoin: miter"/>
   </g>
  </g>
  <g id="axis3d_7">
   <g id="line2d_29">
    <path d="M 191.855404 517.502734 
L 383.506471 526.636747 
" style="fill: none; stroke: #000000; stroke-width: 0.8; stroke-linecap: square"/>
   </g>
   <g id="text_31">
    <!-- Raster files -->
    <g transform="translate(240.808413 565.557892)rotate(-357.271371)scale(0.14 -0.14)">
     <use xlink:href="#DejaVuSans-52"/>
     <use xlink:href="#DejaVuSans-61" x="67.232422"/>
     <use xlink:href="#DejaVuSans-73" x="128.511719"/>
     <use xlink:href="#DejaVuSans-74" x="180.611328"/>
     <use xlink:href="#DejaVuSans-65" x="219.820312"/>
     <use xlink:href="#DejaVuSans-72" x="281.34375"/>
     <use xlink:href="#DejaVuSans-20" x="322.457031"/>
     <use xlink:href="#DejaVuSans-66" x="354.244141"/>
     <use xlink:href="#DejaVuSans-69" x="389.449219"/>
     <use xlink:href="#DejaVuSans-6c" x="417.232422"/>
     <use xlink:href="#DejaVuSans-65" x="445.015625"/>
     <use xlink:href="#DejaVuSans-73" x="506.539062"/>
    </g>
   </g>
   <g id="Line3DCollection_7">
    <path d="M 220.315083 518.859111 
L 255.978428 467.994216 
L 255.034564 340.679142 
" style="fill: none; stroke: #b0b0b0; stroke-width: 0.8"/>
    <path d="M 286.773176 522.026477 
L 315.546766 470.522705 
L 315.827025 342.492219 
" style="fill: none; stroke: #b0b0b0; stroke-width: 0.8"/>
    <path d="M 354.116219 525.236019 
L 375.823061 473.081245 
L 377.356999 344.327292 
" style="fill: none; stroke: #b0b0b0; stroke-width: 0.8"/>
   </g>
   <g id="xtick_23">
    <g id="line2d_30">
     <path d="M 220.633991 518.404268 
L 219.675445 519.771397 
" style="fill: none; stroke: #000000; stroke-width: 0.8; stroke-linecap: square"/>
    </g>
    <g id="text_32">
     <!-- 1 -->
     <g transform="translate(212.921361 544.584824)scale(0.14 -0.14)">
      <use xlink:href="#DejaVuSans-31"/>
     </g>
    </g>
   </g>
   <g id="xtick_24">
    <g id="line2d_31">
     <path d="M 287.030654 521.5656 
L 286.25674 522.950882 
" style="fill: none; stroke: #000000; stroke-width: 0.8; stroke-linecap: square"/>
    </g>
    <g id="text_33">
     <!-- 2 -->
     <g transform="translate(279.857657 547.876453)scale(0.14 -0.14)">
      <use xlink:href="#DejaVuSans-32"/>
     </g>
    </g>
   </g>
   <g id="xtick_25">
    <g id="line2d_32">
     <path d="M 354.310598 524.768988 
L 353.726337 526.172786 
" style="fill: none; stroke: #000000; stroke-width: 0.8; stroke-linecap: square"/>
    </g>
    <g id="text_34">
     <!-- 3 -->
     <g transform="translate(347.691992 551.212242)scale(0.14 -0.14)">
      <use xlink:href="#DejaVuSans-33"/>
     </g>
    </g>
   </g>
  </g>
  <g id="axis3d_8">
   <g id="line2d_33">
    <path d="M 402.102348 474.196718 
L 383.506471 526.636747 
" style="fill: none; stroke: #000000; stroke-width: 0.8; stroke-linecap: square"/>
   </g>
   <g id="text_35">
    <!-- Vector files -->
    <g transform="translate(415.591093 561.311588)rotate(-70.474869)scale(0.14 -0.14)">
     <use xlink:href="#DejaVuSans-56"/>
     <use xlink:href="#DejaVuSans-65" x="60.658203"/>
     <use xlink:href="#DejaVuSans-63" x="122.181641"/>
     <use xlink:href="#DejaVuSans-74" x="177.162109"/>
     <use xlink:href="#DejaVuSans-6f" x="216.371094"/>
     <use xlink:href="#DejaVuSans-72" x="277.552734"/>
     <use xlink:href="#DejaVuSans-20" x="318.666016"/>
     <use xlink:href="#DejaVuSans-66" x="350.453125"/>
     <use xlink:href="#DejaVuSans-69" x="385.658203"/>
     <use xlink:href="#DejaVuSans-6c" x="413.441406"/>
     <use xlink:href="#DejaVuSans-65" x="441.224609"/>
     <use xlink:href="#DejaVuSans-73" x="502.748047"/>
    </g>
   </g>
   <g id="Line3DCollection_8">
    <path d="M 195.916793 370.218561 
L 198.254335 509.11319 
L 386.595366 517.926121 
" style="fill: none; stroke: #b0b0b0; stroke-width: 0.8"/>
    <path d="M 210.286814 357.042124 
L 212.22871 490.791592 
L 393.333873 498.923657 
" style="fill: none; stroke: #b0b0b0; stroke-width: 0.8"/>
    <path d="M 223.554161 344.876772 
L 225.152628 473.847232 
L 399.557057 481.374392 
" style="fill: none; stroke: #b0b0b0; stroke-width: 0.8"/>
   </g>
   <g id="xtick_26">
    <g id="line2d_34">
     <path d="M 385.060564 517.854304 
L 389.666353 518.06982 
" style="fill: none; stroke: #000000; stroke-width: 0.8; stroke-linecap: square"/>
    </g>
    <g id="text_36">
     <!-- 1 -->
     <g transform="translate(396.702561 539.843447)scale(0.14 -0.14)">
      <use xlink:href="#DejaVuSans-31"/>
     </g>
    </g>
   </g>
   <g id="xtick_27">
    <g id="line2d_35">
     <path d="M 391.85911 498.857436 
L 396.284676 499.056155 
" style="fill: none; stroke: #000000; stroke-width: 0.8; stroke-linecap: square"/>
    </g>
    <g id="text_37">
     <!-- 2 -->
     <g transform="translate(402.860499 520.397793)scale(0.14 -0.14)">
      <use xlink:href="#DejaVuSans-32"/>
     </g>
    </g>
   </g>
   <g id="xtick_28">
    <g id="line2d_36">
     <path d="M 398.137814 481.313139 
L 402.396726 481.49695 
" style="fill: none; stroke: #000000; stroke-width: 0.8; stroke-linecap: square"/>
    </g>
    <g id="text_38">
     <!-- 3 -->
     <g transform="translate(408.547636 502.438845)scale(0.14 -0.14)">
      <use xlink:href="#DejaVuSans-33"/>
     </g>
    </g>
   </g>
  </g>
  <g id="axis3d_9">
   <g id="line2d_37">
    <path d="M 402.102348 474.196718 
L 404.187592 345.127489 
" style="fill: none; stroke: #000000; stroke-width: 0.8; stroke-linecap: square"/>
   </g>
   <g id="text_39">
    <!-- Duration [s] -->
    <g transform="translate(451.659222 444.150774)rotate(-89.074409)scale(0.14 -0.14)">
     <use xlink:href="#DejaVuSans-44"/>
     <use xlink:href="#DejaVuSans-75" x="77.001953"/>
     <use xlink:href="#DejaVuSans-72" x="140.380859"/>
     <use xlink:href="#DejaVuSans-61" x="181.494141"/>
     <use xlink:href="#DejaVuSans-74" x="242.773438"/>
     <use xlink:href="#DejaVuSans-69" x="281.982422"/>
     <use xlink:href="#DejaVuSans-6f" x="309.765625"/>
     <use xlink:href="#DejaVuSans-6e" x="370.947266"/>
     <use xlink:href="#DejaVuSans-20" x="434.326172"/>
     <use xlink:href="#DejaVuSans-5b" x="466.113281"/>
     <use xlink:href="#DejaVuSans-73" x="505.126953"/>
     <use xlink:href="#DejaVuSans-5d" x="557.226562"/>
    </g>
   </g>
   <g id="Line3DCollection_9">
    <path d="M 402.43312 453.7231 
L 230.211271 446.75772 
L 191.455234 495.137234 
" style="fill: none; stroke: #b0b0b0; stroke-width: 0.8"/>
    <path d="M 402.817136 429.953911 
L 229.941599 423.364001 
L 190.990319 469.153135 
" style="fill: none; stroke: #b0b0b0; stroke-width: 0.8"/>
    <path d="M 403.204098 406.00231 
L 229.669894 399.793795 
L 190.521477 442.949497 
" style="fill: none; stroke: #b0b0b0; stroke-width: 0.8"/>
    <path d="M 403.594041 381.866186 
L 229.39613 376.045097 
L 190.048656 416.523523 
" style="fill: none; stroke: #b0b0b0; stroke-width: 0.8"/>
    <path d="M 403.987001 357.5434 
L 229.120286 352.115872 
L 189.571806 389.872374 
" style="fill: none; stroke: #b0b0b0; stroke-width: 0.8"/>
   </g>
   <g id="xtick_29">
    <g id="line2d_38">
     <path d="M 401.031946 453.66643 
L 405.23662 453.836485 
" style="fill: none; stroke: #000000; stroke-width: 0.8; stroke-linecap: square"/>
    </g>
    <g id="text_40">
     <!-- 150 -->
     <g transform="translate(403.673298 461.494709)scale(0.14 -0.14)">
      <use xlink:href="#DejaVuSans-31"/>
      <use xlink:href="#DejaVuSans-35" x="63.623047"/>
      <use xlink:href="#DejaVuSans-30" x="127.246094"/>
     </g>
    </g>
   </g>
   <g id="xtick_30">
    <g id="line2d_39">
     <path d="M 401.410554 429.900293 
L 405.631461 430.061192 
" style="fill: none; stroke: #000000; stroke-width: 0.8; stroke-linecap: square"/>
    </g>
    <g id="text_41">
     <!-- 200 -->
     <g transform="translate(404.110069 437.879921)scale(0.14 -0.14)">
      <use xlink:href="#DejaVuSans-32"/>
      <use xlink:href="#DejaVuSans-30" x="63.623047"/>
      <use xlink:href="#DejaVuSans-30" x="127.246094"/>
     </g>
    </g>
   </g>
   <g id="xtick_31">
    <g id="line2d_40">
     <path d="M 401.792066 405.951792 
L 406.029332 406.103388 
" style="fill: none; stroke: #000000; stroke-width: 0.8; stroke-linecap: square"/>
    </g>
    <g id="text_42">
     <!-- 250 -->
     <g transform="translate(404.550169 414.085169)scale(0.14 -0.14)">
      <use xlink:href="#DejaVuSans-32"/>
      <use xlink:href="#DejaVuSans-35" x="63.623047"/>
      <use xlink:href="#DejaVuSans-30" x="127.246094"/>
     </g>
    </g>
   </g>
   <g id="xtick_32">
    <g id="line2d_41">
     <path d="M 402.176517 381.818817 
L 406.430269 381.960963 
" style="fill: none; stroke: #000000; stroke-width: 0.8; stroke-linecap: square"/>
    </g>
    <g id="text_43">
     <!-- 300 -->
     <g transform="translate(404.993636 390.108388)scale(0.14 -0.14)">
      <use xlink:href="#DejaVuSans-33"/>
      <use xlink:href="#DejaVuSans-30" x="63.623047"/>
      <use xlink:href="#DejaVuSans-30" x="127.246094"/>
     </g>
    </g>
   </g>
   <g id="xtick_33">
    <g id="line2d_42">
     <path d="M 402.563941 357.499231 
L 406.834308 357.631775 
" style="fill: none; stroke: #000000; stroke-width: 0.8; stroke-linecap: square"/>
    </g>
    <g id="text_44">
     <!-- 350 -->
     <g transform="translate(405.440508 365.947482)scale(0.14 -0.14)">
      <use xlink:href="#DejaVuSans-33"/>
      <use xlink:href="#DejaVuSans-35" x="63.623047"/>
      <use xlink:href="#DejaVuSans-30" x="127.246094"/>
     </g>
    </g>
   </g>
  </g>
  <g id="axes_3">
   <g id="Poly3DCollection_3">
    <path d="M 239.030378 467.762449 
L 238.740118 439.151459 
L 268.69396 440.33926 
L 268.847172 469.029522 
z
" clip-path="url(#p4ac7565cd4)" style="fill: #003615"/>
    <path d="M 298.841117 470.304124 
L 298.824439 437.266787 
L 329.158286 438.456874 
L 329.013796 471.586321 
z
" clip-path="url(#p4ac7565cd4)" style="fill: #003615"/>
    <path d="M 233.006496 475.890358 
L 239.030378 467.762449 
L 268.847172 469.029522 
L 263.37332 477.20611 
z
" clip-path="url(#p4ac7565cd4)" style="fill: #00451b"/>
    <path d="M 233.006496 475.890358 
L 232.682385 446.771419 
L 238.740118 439.151459 
L 239.030378 467.762449 
z
" clip-path="url(#p4ac7565cd4)" style="fill: #00732d"/>
    <path d="M 263.37332 477.20611 
L 268.847172 469.029522 
L 268.69396 440.33926 
L 263.191372 448.00507 
z
" clip-path="url(#p4ac7565cd4)" style="fill: #003615"/>
    <path d="M 232.682385 446.771419 
L 263.191372 448.00507 
L 268.69396 440.33926 
L 238.740118 439.151459 
z
" clip-path="url(#p4ac7565cd4)" style="fill: #006427"/>
    <path d="M 359.366812 472.876181 
L 359.745175 432.010438 
L 390.483192 433.193311 
L 389.901786 474.173774 
z
" clip-path="url(#p4ac7565cd4)" style="fill: #003615"/>
    <path d="M 293.924012 478.52983 
L 298.841117 470.304124 
L 329.013796 471.586321 
L 324.660246 479.861588 
z
" clip-path="url(#p4ac7565cd4)" style="fill: #00451b"/>
    <path d="M 293.924012 478.52983 
L 293.880315 444.902235 
L 298.824439 437.266787 
L 298.841117 470.304124 
z
" clip-path="url(#p4ac7565cd4)" style="fill: #00732d"/>
    <path d="M 324.660246 479.861588 
L 329.013796 471.586321 
L 329.158286 438.456874 
L 324.783811 446.138576 
z
" clip-path="url(#p4ac7565cd4)" style="fill: #003615"/>
    <path d="M 293.880315 444.902235 
L 324.783811 446.138576 
L 329.158286 438.456874 
L 298.824439 437.266787 
z
" clip-path="url(#p4ac7565cd4)" style="fill: #006427"/>
    <path d="M 233.006496 475.890358 
L 263.37332 477.20611 
L 263.191372 448.00507 
L 232.682385 446.771419 
z
" clip-path="url(#p4ac7565cd4)" style="fill: #00732d"/>
    <path d="M 355.583717 481.201459 
L 359.366812 472.876181 
L 389.901786 474.173774 
L 386.696143 482.549517 
z
" clip-path="url(#p4ac7565cd4)" style="fill: #00451b"/>
    <path d="M 355.583717 481.201459 
L 355.943983 439.600494 
L 359.745175 432.010438 
L 359.366812 472.876181 
z
" clip-path="url(#p4ac7565cd4)" style="fill: #00732d"/>
    <path d="M 386.696143 482.549517 
L 389.901786 474.173774 
L 390.483192 433.193311 
L 387.267232 440.829683 
z
" clip-path="url(#p4ac7565cd4)" style="fill: #003615"/>
    <path d="M 293.924012 478.52983 
L 324.660246 479.861588 
L 324.783811 446.138576 
L 293.880315 444.902235 
z
" clip-path="url(#p4ac7565cd4)" style="fill: #00732d"/>
    <path d="M 355.943983 439.600494 
L 387.267232 440.829683 
L 390.483192 433.193311 
L 359.745175 432.010438 
z
" clip-path="url(#p4ac7565cd4)" style="fill: #006427"/>
    <path d="M 355.583717 481.201459 
L 386.696143 482.549517 
L 387.267232 440.829683 
L 355.943983 439.600494 
z
" clip-path="url(#p4ac7565cd4)" style="fill: #00732d"/>
    <path d="M 226.749279 484.333101 
L 226.180534 437.549833 
L 257.350917 438.782453 
L 257.686787 485.700392 
z
" clip-path="url(#p4ac7565cd4)" style="fill: #003615"/>
    <path d="M 288.815268 487.076123 
L 288.748707 455.78655 
L 320.228677 457.080461 
L 320.136495 488.460373 
z
" clip-path="url(#p4ac7565cd4)" style="fill: #003615"/>
    <path d="M 220.244904 493.10933 
L 226.749279 484.333101 
L 257.686787 485.700392 
L 251.774932 494.531249 
z
" clip-path="url(#p4ac7565cd4)" style="fill: #00451b"/>
    <path d="M 220.244904 493.10933 
L 219.614682 445.462648 
L 226.180534 437.549833 
L 226.749279 484.333101 
z
" clip-path="url(#p4ac7565cd4)" style="fill: #00732d"/>
    <path d="M 351.652265 489.853221 
L 351.901199 458.876645 
L 383.773507 460.18823 
L 383.364396 491.254747 
z
" clip-path="url(#p4ac7565cd4)" style="fill: #003615"/>
    <path d="M 251.774932 494.531249 
L 257.686787 485.700392 
L 257.350917 438.782453 
L 251.386624 446.7449 
z
" clip-path="url(#p4ac7565cd4)" style="fill: #003615"/>
    <path d="M 283.503459 495.962119 
L 288.815268 487.076123 
L 320.136495 488.460373 
L 315.432364 497.402026 
z
" clip-path="url(#p4ac7565cd4)" style="fill: #00451b"/>
    <path d="M 283.503459 495.962119 
L 283.408159 464.093334 
L 288.748707 455.78655 
L 288.815268 487.076123 
z
" clip-path="url(#p4ac7565cd4)" style="fill: #00732d"/>
    <path d="M 219.614682 445.462648 
L 251.386624 446.7449 
L 257.350917 438.782453 
L 226.180534 437.549833 
z
" clip-path="url(#p4ac7565cd4)" style="fill: #006427"/>
    <path d="M 315.432364 497.402026 
L 320.136495 488.460373 
L 320.228677 457.080461 
L 315.502043 465.439541 
z
" clip-path="url(#p4ac7565cd4)" style="fill: #003615"/>
    <path d="M 283.408159 464.093334 
L 315.502043 465.439541 
L 320.228677 457.080461 
L 288.748707 455.78655 
z
" clip-path="url(#p4ac7565cd4)" style="fill: #006427"/>
    <path d="M 347.563553 498.851056 
L 351.652265 489.853221 
L 383.364396 491.254747 
L 379.898954 500.309295 
z
" clip-path="url(#p4ac7565cd4)" style="fill: #00451b"/>
    <path d="M 347.563553 498.851056 
L 347.796593 467.297768 
L 351.901199 458.876645 
L 351.652265 489.853221 
z
" clip-path="url(#p4ac7565cd4)" style="fill: #00732d"/>
    <path d="M 220.244904 493.10933 
L 251.774932 494.531249 
L 251.386624 446.7449 
L 219.614682 445.462648 
z
" clip-path="url(#p4ac7565cd4)" style="fill: #00732d"/>
    <path d="M 379.898954 500.309295 
L 383.364396 491.254747 
L 383.773507 460.18823 
L 380.298546 468.662701 
z
" clip-path="url(#p4ac7565cd4)" style="fill: #003615"/>
    <path d="M 347.796593 467.297768 
L 380.298546 468.662701 
L 383.773507 460.18823 
L 351.901199 458.876645 
z
" clip-path="url(#p4ac7565cd4)" style="fill: #006427"/>
    <path d="M 283.503459 495.962119 
L 315.432364 497.402026 
L 315.502043 465.439541 
L 283.408159 464.093334 
z
" clip-path="url(#p4ac7565cd4)" style="fill: #00732d"/>
    <path d="M 347.563553 498.851056 
L 379.898954 500.309295 
L 380.298546 468.662701 
L 347.796593 467.297768 
z
" clip-path="url(#p4ac7565cd4)" style="fill: #00732d"/>
    <path d="M 213.478431 502.239203 
L 213.109903 476.545823 
L 245.38868 477.949296 
L 245.624092 503.71909 
z
" clip-path="url(#p4ac7565cd4)" style="fill: #003615"/>
    <path d="M 277.976232 505.208482 
L 277.919146 490.537887 
L 310.557287 491.993073 
L 310.536845 506.707472 
z
" clip-path="url(#p4ac7565cd4)" style="fill: #003615"/>
    <path d="M 206.433692 511.744535 
L 213.478431 502.239203 
L 245.624092 503.71909 
L 239.219478 513.286008 
z
" clip-path="url(#p4ac7565cd4)" style="fill: #00451b"/>
    <path d="M 206.433692 511.744535 
L 206.027611 485.561002 
L 213.109903 476.545823 
L 213.478431 502.239203 
z
" clip-path="url(#p4ac7565cd4)" style="fill: #00732d"/>
    <path d="M 239.219478 513.286008 
L 245.624092 503.71909 
L 245.38868 477.949296 
L 238.951876 487.023133 
z
" clip-path="url(#p4ac7565cd4)" style="fill: #003615"/>
    <path d="M 206.027611 485.561002 
L 238.951876 487.023133 
L 245.38868 477.949296 
L 213.109903 476.545823 
z
" clip-path="url(#p4ac7565cd4)" style="fill: #006427"/>
    <path d="M 343.307954 508.216152 
L 343.454881 486.30759 
L 376.556631 487.760171 
L 376.291606 509.734617 
z
" clip-path="url(#p4ac7565cd4)" style="fill: #003615"/>
    <path d="M 272.220212 514.837588 
L 272.147965 499.886001 
L 277.919146 490.537887 
L 277.976232 505.208482 
z
" clip-path="url(#p4ac7565cd4)" style="fill: #00732d"/>
    <path d="M 272.220212 514.837588 
L 277.976232 505.208482 
L 310.536845 506.707472 
L 305.438016 516.399373 
z
" clip-path="url(#p4ac7565cd4)" style="fill: #00451b"/>
    <path d="M 272.147965 499.886001 
L 305.44646 501.402298 
L 310.557287 491.993073 
L 277.919146 490.537887 
z
" clip-path="url(#p4ac7565cd4)" style="fill: #006427"/>
    <path d="M 305.438016 516.399373 
L 310.536845 506.707472 
L 310.557287 491.993073 
L 305.44646 501.402298 
z
" clip-path="url(#p4ac7565cd4)" style="fill: #003615"/>
    <path d="M 206.433692 511.744535 
L 239.219478 513.286008 
L 238.951876 487.023133 
L 206.027611 485.561002 
z
" clip-path="url(#p4ac7565cd4)" style="fill: #00732d"/>
    <path d="M 338.875037 517.971464 
L 343.307954 508.216152 
L 376.291606 509.734617 
L 372.533453 519.553965 
z
" clip-path="url(#p4ac7565cd4)" style="fill: #00451b"/>
    <path d="M 338.875037 517.971464 
L 339.00895 495.640214 
L 343.454881 486.30759 
L 343.307954 508.216152 
z
" clip-path="url(#p4ac7565cd4)" style="fill: #00732d"/>
    <path d="M 372.533453 519.553965 
L 376.291606 509.734617 
L 376.556631 487.760171 
L 372.790356 497.154277 
z
" clip-path="url(#p4ac7565cd4)" style="fill: #003615"/>
    <path d="M 339.00895 495.640214 
L 372.790356 497.154277 
L 376.556631 487.760171 
L 343.454881 486.30759 
z
" clip-path="url(#p4ac7565cd4)" style="fill: #006427"/>
    <path d="M 272.220212 514.837588 
L 305.438016 516.399373 
L 305.44646 501.402298 
L 272.147965 499.886001 
z
" clip-path="url(#p4ac7565cd4)" style="fill: #00732d"/>
    <path d="M 338.875037 517.971464 
L 372.533453 519.553965 
L 372.790356 497.154277 
L 339.00895 495.640214 
z
" clip-path="url(#p4ac7565cd4)" style="fill: #00732d"/>
   </g>
   <g id="text_45">
    <!-- Roles: 3 -->
    <g transform="translate(264.759563 318.288)scale(0.168 -0.168)">
     <use xlink:href="#DejaVuSans-52"/>
     <use xlink:href="#DejaVuSans-6f" x="64.982422"/>
     <use xlink:href="#DejaVuSans-6c" x="126.164062"/>
     <use xlink:href="#DejaVuSans-65" x="153.947266"/>
     <use xlink:href="#DejaVuSans-73" x="215.470703"/>
     <use xlink:href="#DejaVuSans-3a" x="267.570312"/>
     <use xlink:href="#DejaVuSans-20" x="301.261719"/>
     <use xlink:href="#DejaVuSans-33" x="333.048828"/>
    </g>
   </g>
  </g>
 </g>
 <defs>
  <clipPath id="p82533bc983">
   <rect x="-20.88" y="0" width="288" height="288"/>
  </clipPath>
  <clipPath id="pa2c9ad9fec">
   <rect x="329.04" y="0" width="288" height="288"/>
  </clipPath>
  <clipPath id="p4ac7565cd4">
   <rect x="154.08" y="288" width="288" height="288"/>
  </clipPath>
 </defs>
</svg>
